
<svg width="3772" height="1893" viewBox="0 0 3772 1893" fill="none" xmlns="http://www.w3.org/2000/svg">
<mask id="mask0_103_2" style="mask-type:luminance" maskUnits="userSpaceOnUse" x="0" y="0" width="3772" height="1893">
<path d="M3772 0H0V1893H3772V0Z" fill="white"/>
</mask>
<g mask="url(#mask0_103_2)">
<path d="M-179.799 1086.11C-38.663 1020.33 150.88 1042.57 292.33 1108.11C433.78 1173.66 537.51 1275.65 638.097 1375.03C735.854 1471.81 858.759 1578.05 1020.33 1574.5C1171.21 1570.95 1287.51 1467.55 1336.55 1360.12C1385.58 1252.69 1388.1 1136.04 1427.7 1026.48C1467.31 916.685 1560.67 805.471 1707.77 779.679C1839.16 756.727 1971.18 807.838 2104.46 824.165C2402.14 860.842 2686.61 722.653 2913.56 572.869C3140.5 423.085 3359.91 249.166 3650.98 189.3" stroke="#FF9E73" stroke-miterlimit="10"/>
<path d="M-190.8 1073.33C-51.865 1006.84 133.906 1024.82 275.042 1085.16C416.177 1145.5 522.108 1241.33 624.895 1336.22C707.879 1413.12 807.522 1497.36 930.112 1523.39C954.63 1528.6 980.091 1531.44 1006.5 1531.44C1154.86 1531.44 1269.28 1437.26 1323.66 1336.69C1378.35 1235.42 1389.67 1120.66 1433.05 1011.57C1437.76 999.504 1443.42 987.436 1449.39 975.368C1497.48 879.062 1586.13 787.961 1716.89 763.589C1750.84 757.2 1785.1 755.78 1819.36 757.436C1917.75 762.405 2016.45 793.403 2115.46 806.418C2221.08 820.379 2325.12 813.753 2425.71 791.274C2581.62 756.49 2727.78 683.609 2856.98 602.447C2880.86 587.54 2904.13 572.396 2926.76 557.015C3027.66 488.867 3126.99 415.986 3233.55 351.861C3365.57 272.355 3509.85 207.283 3668.58 181.964" stroke="#F99A78" stroke-miterlimit="10"/>
<path d="M-201.488 1060.55C-65.0669 993.588 117.561 1007.08 258.382 1061.97C399.203 1116.87 507.648 1206.79 612.321 1297.18C697.191 1370.53 797.464 1451.46 918.168 1479.14C942.371 1484.59 967.518 1487.9 993.293 1488.61C1139.14 1492.16 1251.99 1407.21 1311.71 1313.27C1372.07 1218.38 1391.87 1105.28 1439.33 996.664C1444.68 984.596 1450.33 972.529 1456.62 960.697C1507.23 864.864 1596.5 773.527 1726.95 747.735C1760.9 741.109 1795.16 739.216 1829.73 740.399C1928.75 744.185 2028.08 774.947 2127.72 788.908C2233.65 803.815 2338.01 799.556 2439.54 778.259C2597.34 745.132 2743.82 670.595 2872.38 587.776C2895.95 572.632 2919.21 557.015 2941.53 541.398C3041.8 471.83 3140.82 397.766 3248.32 333.878C3381.6 254.608 3530.91 192.613 3687.44 174.866" stroke="#F3967C" stroke-miterlimit="10"/>
<path d="M-212.489 1047.78C-78.2689 980.101 100.587 989.566 241.094 1039.02C381.601 1088.47 492.246 1172.24 599.434 1258.37C686.19 1327.94 786.777 1406.03 906.223 1434.89C930.113 1440.57 954.631 1444.36 980.092 1445.54C1123.43 1452.64 1234.39 1376.92 1299.45 1289.84C1365.46 1201.11 1394.07 1089.89 1445.3 981.757C1450.96 969.689 1457.25 957.858 1463.85 945.79C1516.97 850.43 1606.56 758.62 1736.69 731.644C1770.64 724.546 1804.9 722.179 1839.79 723.126C1939.75 725.729 2039.39 756.253 2139.35 771.161C2245.28 787.015 2350.27 785.122 2452.43 764.772C2611.8 733.301 2758.59 657.108 2886.52 572.869C2910.1 557.488 2933.04 541.635 2955.36 525.781C3055.32 455.03 3153.71 379.783 3262.47 315.894C3397 236.862 3551.65 177.942 3705.99 167.767" stroke="#EC9281" stroke-miterlimit="10"/>
<path d="M-223.177 1035.23C-91.471 966.849 83.927 972.055 224.12 1016.3C364.312 1060.55 477.472 1138.17 586.546 1219.8C675.188 1285.82 776.403 1360.83 893.964 1390.88C917.539 1396.8 941.743 1401.06 966.575 1402.71C1107.08 1413.12 1216.78 1346.63 1286.88 1266.65C1358.86 1184.07 1395.64 1074.75 1450.96 967.323C1456.93 955.491 1463.54 943.424 1470.45 931.592C1526.09 836.706 1615.99 744.659 1746.12 716.027C1780.07 708.455 1814.33 705.616 1849.54 706.325C1950.12 707.745 2050.4 738.033 2150.98 754.124C2257.23 770.924 2362.53 771.397 2465.63 751.994C2626.57 722.179 2773.99 644.093 2900.98 558.435C2924.24 542.581 2947.19 526.49 2969.51 510.4C3068.84 438.229 3166.59 361.799 3276.61 298.147C3412.4 219.351 3572.08 163.271 3724.22 160.905" stroke="#E68E85" stroke-miterlimit="10"/>
<path d="M-233.864 1022.46C-104.359 953.599 67.5816 954.309 207.46 993.352C347.338 1032.16 462.698 1103.86 574.287 1181C664.5 1243.46 766.345 1315.16 882.648 1346.87C905.594 1353.02 929.483 1357.52 954.001 1360.12C1091.99 1373.84 1200.44 1316.58 1275.25 1243.7C1353.52 1167.27 1398.47 1059.84 1457.56 952.889C1464.16 941.058 1471.08 929.226 1478.31 917.395C1536.46 822.982 1626.99 730.698 1756.49 700.647C1790.44 692.838 1825.02 689.525 1860.22 689.525C1961.44 689.999 2062.03 719.813 2163.24 736.85C2269.8 754.597 2375.42 757.437 2479.46 739.217C2642.29 711.058 2790.02 631.316 2916.07 544.001C2939.33 527.911 2961.96 511.583 2984.28 495.02C3083.3 421.666 3180.42 344.053 3291.7 280.401C3428.75 201.605 3593.77 148.837 3743.4 154.043" stroke="#E08B8A" stroke-miterlimit="10"/>
<path d="M-244.866 1009.68C-117.875 940.112 50.6076 936.799 190.172 970.163C329.736 1003.76 447.611 1069.31 561.085 1141.95C653.185 1200.64 755.657 1269.49 870.075 1302.38C892.707 1308.77 915.967 1313.74 940.171 1316.82C1075.65 1334.09 1183.15 1285.82 1262.36 1219.8C1346.92 1149.52 1399.73 1043.99 1462.91 937.509C1469.82 925.678 1477.05 913.846 1484.6 902.252C1545.26 808.312 1636.1 715.555 1765.61 684.083C1799.56 675.802 1834.13 672.016 1869.65 671.779C1971.81 671.069 2072.71 700.647 2174.56 718.631C2281.43 737.324 2387.36 742.293 2492.03 725.256C2656.43 698.754 2804.48 617.355 2930.22 528.384C2953.16 512.057 2975.79 495.493 2997.8 478.693C3096.18 403.919 3193 325.123 3305.21 261.471C3443.52 182.912 3613.58 132.984 3761 145.998" stroke="#DA878E" stroke-miterlimit="10"/>
<path d="M-255.553 996.901C-130.763 926.623 33.9481 919.051 173.198 947.21C312.447 975.368 432.523 1035 548.197 1103.15C642.183 1158.28 744.97 1224.06 858.13 1258.14C880.448 1264.76 903.394 1270.2 926.969 1273.75C1059.93 1294.58 1166.49 1255.53 1250.1 1196.38C1341.26 1132.25 1401.93 1028.61 1468.88 922.837C1476.42 911.243 1483.97 899.412 1491.83 887.817C1555.01 794.35 1646.16 701.356 1775.67 668.466C1809.62 659.947 1844.19 655.688 1880.03 654.978C1982.81 653.085 2084.34 682.426 2186.82 701.356C2294 720.996 2400.25 728.332 2505.87 712.478C2671.83 687.632 2820.51 604.577 2945.3 514.186C2968.25 497.622 2990.57 480.585 3012.57 463.548C3110.64 387.592 3206.83 307.612 3320.3 243.96C3460.18 165.637 3635.27 118.786 3780.49 139.372" stroke="#D48393" stroke-miterlimit="10"/>
<path d="M-266.555 984.123C-143.965 913.372 17.2883 901.304 156.224 924.257C295.159 947.209 417.749 1000.69 535.624 1064.34C631.181 1115.69 734.912 1178.63 846.5 1214.12C868.503 1221.22 890.821 1226.9 913.767 1231.16C1044.22 1255.53 1149.83 1225.72 1237.84 1173.42C1335.6 1115.45 1403.81 1013.46 1474.54 908.403C1482.4 896.808 1490.25 885.214 1498.43 873.619C1564.12 780.862 1655.59 687.159 1784.78 653.085C1818.73 644.093 1853.31 639.36 1889.46 638.414C1992.87 635.338 2095.03 664.679 2197.82 684.319C2305.32 704.906 2411.88 714.607 2518.12 699.7C2685.66 676.511 2834.66 591.799 2958.82 499.752C2981.45 482.951 3003.77 465.678 3025.77 448.404C3123.22 371.028 3219.09 289.865 3333.5 226.45C3474.64 148.364 3654.75 104.351 3797.78 132.983" stroke="#CE7F97" stroke-miterlimit="10"/>
<path d="M-277.242 971.346C-157.167 899.885 0.628646 883.795 139.25 901.305C277.871 918.815 402.661 966.377 522.736 1025.53C620.18 1073.33 724.224 1132.96 834.241 1169.87C855.93 1177.21 877.933 1183.36 900.251 1188.09C1028.18 1216.02 1133.49 1195.43 1225.27 1150C1329.94 1098.18 1405.7 998.085 1480.2 893.496C1488.37 881.902 1496.86 870.307 1505.34 858.713C1573.24 766.429 1665.65 672.489 1794.53 636.758C1828.48 627.293 1863.37 622.088 1899.52 620.668C2003.56 616.645 2106.35 645.513 2209.76 666.336C2317.27 687.869 2424.45 699.937 2531.64 685.976C2701.07 664.444 2850.37 578.075 2973.59 484.372C2996.23 467.335 3018.23 449.588 3040.23 432.078C3137.36 353.282 3232.6 271.173 3348.28 207.757C3490.67 129.671 3676.13 88.9715 3816.64 125.175" stroke="#C87B9C" stroke-miterlimit="10"/>
<path d="M-288.244 958.568C-170.369 886.397 -16.3454 866.047 121.961 878.115C260.268 890.183 387.573 931.829 509.849 986.49C609.178 1030.74 713.851 1087.29 822.296 1125.63C843.671 1133.2 865.045 1139.59 887.049 1145.26C1012.47 1176.74 1117.14 1165.38 1213.01 1126.57C1324.6 1081.38 1407.58 982.704 1486.17 878.825C1494.97 867.231 1503.46 855.873 1512.57 844.278C1582.98 752.467 1675.71 658.291 1804.27 621.141C1837.91 611.439 1873.11 605.76 1909.57 603.867C2014.56 598.661 2117.66 627.293 2221.39 649.062C2329.21 671.542 2436.71 685.976 2544.84 673.198C2715.84 653.322 2865.46 565.06 2988.37 470.174C3011 452.664 3032.69 434.917 3054.38 416.933C3150.88 336.954 3245.81 253.425 3362.42 190.246C3506.07 112.397 3696.56 74.7734 3834.87 118.549" stroke="#C177A0" stroke-miterlimit="10"/>
<path d="M-298.931 945.79C-183.571 873.146 -33.0049 848.3 105.302 855.162C243.294 862.024 372.799 897.518 497.275 947.683C598.491 988.146 703.478 1041.86 810.351 1081.38C831.097 1089.18 852.472 1096.05 873.847 1102.2C996.437 1136.98 1101.11 1135.56 1200.75 1103.15C1319.57 1064.58 1409.79 967.323 1492.14 863.917C1501.26 852.559 1510.37 840.965 1519.49 829.607C1592.41 738.27 1685.46 643.62 1814.02 605.05C1847.65 594.875 1882.86 588.723 1919.63 586.593C2025.25 580.204 2128.98 608.599 2233.34 631.315C2341.47 654.741 2449.29 671.541 2558.04 659.71C2730.61 641.49 2880.87 551.573 3002.83 455.03C3025.14 437.283 3046.83 419.299 3068.52 401.079C3164.71 319.68 3258.69 235.205 3376.88 172.026C3521.79 94.413 3717.31 59.6291 3853.73 111.213" stroke="#BB73A4" stroke-miterlimit="10"/>
<path d="M-309.618 933.012C-196.458 859.658 -49.3503 830.554 88.3277 832.21C226.006 833.63 358.026 863.208 484.388 908.64C587.175 945.553 693.105 995.954 798.407 1036.89C818.838 1044.94 839.584 1052.27 860.645 1058.9C980.72 1097.23 1085.08 1105.51 1188.49 1079.48C1314.54 1047.78 1411.67 951.706 1498.11 848.774C1507.54 837.416 1517.29 826.058 1526.72 814.7C1602.16 723.836 1695.51 628.949 1824.08 588.959C1857.71 578.548 1892.92 571.922 1930.01 569.32C2036.25 561.748 2140.61 589.906 2245.28 613.568C2353.73 637.941 2461.86 657.107 2571.56 646.459C2746.02 629.896 2896.58 538.322 3017.6 440.122C3039.92 422.139 3061.61 403.682 3082.98 385.225C3178.54 302.643 3272.21 216.748 3391.34 153.806C3537.51 76.4297 3738.37 44.7219 3872.27 103.878" stroke="#B56FA9" stroke-miterlimit="10"/>
<path d="M-320.62 920.471C-209.975 846.407 -66.3244 813.28 71.3536 809.257C208.717 805.471 342.938 828.897 471.814 869.833C576.487 903.197 682.732 950.286 786.462 992.878C806.579 1001.16 827.011 1008.97 847.443 1016.3C965.003 1058.19 1069.05 1076.41 1176.55 1056.29C1309.83 1031.68 1414.19 936.561 1504.4 834.339C1514.46 822.981 1524.2 811.623 1533.95 800.502C1611.9 710.111 1705.89 614.751 1833.82 573.579C1867.45 562.694 1902.66 555.595 1940.07 552.756C2047.25 544.237 2151.93 571.922 2257.23 596.531C2365.99 621.85 2474.43 643.383 2584.76 633.681C2760.79 618.774 2911.67 525.544 3032.06 425.688C3054.06 407.468 3075.75 388.775 3096.81 369.845C3191.74 285.843 3285.1 199.001 3405.49 136.059C3553.22 58.6827 3758.8 30.0511 3890.5 97.0159" stroke="#AF6BAD" stroke-miterlimit="10"/>
<path d="M-331.307 907.694C-222.862 832.92 -82.9841 795.534 54.3796 786.305C191.429 777.077 328.164 794.587 458.927 831.028C565.486 860.606 672.359 904.855 774.517 948.63C794.32 957.149 814.123 965.431 834.241 973.239C949.286 1018.67 1052.7 1046.83 1164.29 1032.87C1304.48 1015.36 1416.07 921.182 1510.37 819.433C1520.74 808.312 1531.12 796.954 1541.18 785.596C1621.65 695.915 1715.95 600.082 1843.88 557.252C1877.51 545.894 1913.03 538.559 1950.44 535.01C2058.25 525.308 2163.56 552.757 2269.17 578.549C2378.25 604.814 2487 628.477 2598.28 619.958C2775.88 606.707 2927.39 511.82 3047.15 410.545C3069.15 392.088 3090.53 372.922 3111.59 353.992C3206.2 268.807 3298.93 180.545 3420.26 117.84C3569.25 40.7 3780.17 15.1445 3909.68 89.6814" stroke="#A968B2" stroke-miterlimit="10"/>
<path d="M-342.309 894.916C-236.379 819.669 -99.6438 777.787 37.0913 763.353C173.826 748.919 313.076 760.277 446.039 792.221C554.17 818.25 661.986 859.186 762.258 904.381C781.747 913.136 800.921 921.891 820.41 930.41C932.627 979.628 1035.73 1017.72 1151.4 1009.68C1298.51 999.504 1417.64 906.038 1515.72 804.762C1526.4 793.641 1537.09 782.283 1547.46 771.161C1630.45 681.954 1725.06 585.884 1852.99 541.635C1886.63 530.041 1922.15 521.995 1959.87 518.209C2068.31 507.325 2174.24 534.773 2280.49 561.275C2389.56 588.487 2498.95 614.516 2610.85 607.18C2790.02 595.586 2941.85 499.043 3060.98 396.111C3082.67 377.181 3104.04 358.014 3125.1 338.611C3219.09 252.006 3311.5 162.798 3433.78 100.093C3584.03 23.1897 3799.98 0.473725 3927.28 82.8192" stroke="#A364B6" stroke-miterlimit="10"/>
<path d="M-352.996 882.137C-249.266 806.181 -116.303 760.276 20.4317 740.399C156.852 720.523 298.302 725.965 433.466 753.413C543.482 775.893 651.613 813.753 750.628 860.368C769.802 869.36 788.662 878.588 807.522 887.58C917.225 940.347 1019.7 988.619 1139.46 986.489C1293.48 983.886 1419.84 890.893 1522 790.09C1533.32 778.969 1544.32 767.848 1555.01 756.726C1640.51 667.992 1735.43 571.449 1863.05 525.78C1896.69 513.712 1932.21 505.194 1969.93 501.171C2079.32 489.103 2185.56 516.315 2292.12 543.764C2401.51 571.922 2511.21 600.317 2624.05 593.928C2805.11 583.753 2957.25 485.554 3075.44 381.202C3097.13 362.036 3118.19 342.632 3139.25 322.756C3232.92 234.968 3324.7 144.341 3448.24 81.8717C3599.75 5.20522 3821.04 -14.4347 3945.83 75.4828" stroke="#9C60BB" stroke-miterlimit="10"/>
<path d="M-363.998 869.36C-262.783 792.694 -133.277 742.529 3.14337 717.21C139.25 691.892 283.214 691.418 420.264 714.371C532.166 733.064 640.926 768.085 738.055 815.883C756.6 825.111 775.146 834.576 793.692 844.278C900.879 900.595 1002.72 959.041 1126.57 962.591C1287.2 967.323 1421.42 874.803 1527.35 774.947C1538.98 763.826 1550.29 752.941 1561.29 741.82C1648.99 653.558 1744.86 556.779 1872.17 509.69C1905.8 497.386 1941.32 488.394 1979.36 483.898C2089.37 470.884 2196.25 497.623 2303.43 526.018C2413.14 555.122 2523.15 585.884 2636.94 580.678C2819.57 572.159 2972.34 472.304 3089.58 366.296C3110.96 346.892 3132.02 327.016 3152.76 307.139C3245.81 217.932 3336.96 126.358 3461.75 63.6523C3614.52 -13.0142 3840.84 -29.3414 3963.43 68.1481" stroke="#965CBF" stroke-miterlimit="10"/>
<path d="M-374.685 856.582C-96.186 639.361 395.117 601.501 726.424 771.871C851.215 835.996 964.06 928.516 1114.63 939.638C1300.08 953.362 1454.73 838.362 1568.84 727.622C1682.94 616.881 1806.16 490.76 1990.04 467.098C2213.85 438.229 2424.14 576.182 2650.77 567.663C2834.97 560.801 2988.05 459.289 3104.98 351.861C3221.92 244.433 3323.13 122.335 3477.16 46.1417C3631.18 -30.2882 3862.84 -43.7758 3983.23 61.5223" stroke="#9058C4" stroke-miterlimit="10"/>
<path d="M-358.026 902.251C-85.4988 680.534 403.604 634.392 740.255 797.663C866.931 859.186 982.291 949.103 1132.86 957.622C1281.85 966.14 1409.16 892.313 1510.37 804.762C1535.2 783.229 1558.15 760.986 1579.84 738.98C1644.91 672.725 1712.17 601.265 1792.96 547.551C1849.22 510.401 1912.4 481.769 1985.64 469.701C2057.63 457.87 2128.98 463.549 2200.65 476.563C2345.87 502.355 2492.03 558.672 2644.17 555.123C2806.37 551.337 2944.67 479.876 3057.21 395.637C3072.61 384.279 3087.38 372.685 3101.53 360.854C3192.06 286.553 3274.72 204.208 3377.2 136.296C3410.2 114.527 3445.09 94.1771 3483.13 76.1936C3638.72 2.36664 3866.61 -15.3802 3984.8 77.1401" stroke="#8C5BC7" stroke-miterlimit="10"/>
<path d="M-341.052 947.684C-74.497 721.47 412.405 666.81 754.086 823.455C882.648 882.375 1000.84 969.69 1151.4 975.605C1300.08 981.521 1425.82 905.801 1524.2 817.066C1548.09 795.297 1570.72 772.818 1591.47 750.338C1654.02 682.9 1718.15 610.729 1796.1 555.359C1850.17 517.026 1910.83 486.738 1982.19 472.54C2051.97 458.343 2121.75 461.182 2193.1 471.357C2337.7 491.707 2486.06 544.238 2638.51 542.818C2800.4 541.162 2939.02 477.51 3053.43 401.79C3068.84 391.615 3083.92 380.967 3098.7 370.555C3191.43 303.354 3277.24 228.107 3382.23 164.455C3415.86 143.868 3451.38 124.702 3489.73 107.191C3646.9 35.9673 3871.02 13.7246 3987.32 93.4672" stroke="#895ECA" stroke-miterlimit="10"/>
<path d="M-324.392 993.115C-63.8097 762.405 421.207 699.227 767.916 849.247C898.05 905.564 1019.07 990.275 1169.63 993.588C1318.31 997.137 1442.16 919.524 1537.72 829.607C1560.98 807.601 1582.67 784.648 1602.79 761.696C1663.14 693.311 1724.12 619.957 1798.62 562.931C1850.17 523.414 1908.95 491.706 1977.79 475.143C2045.68 458.579 2113.89 458.579 2184.62 465.914C2328.27 480.585 2478.83 529.33 2631.91 530.04C2793.79 530.513 2932.73 474.906 3049.03 407.468C3064.75 398.24 3080.15 389.011 3095.24 379.546C3190.48 319.443 3279.13 251.295 3386.31 191.666C3420.89 172.499 3457.04 154.043 3495.7 137.479C3654.44 68.8576 3874.79 42.3556 3988.89 109.084" stroke="#8560CE" stroke-miterlimit="10"/>
<path d="M-307.418 1038.78C-53.1223 803.815 430.008 732.118 782.061 875.039C914.081 928.99 1037.61 1010.86 1188.18 1011.57C1336.55 1012.52 1459.14 933.249 1551.23 841.912C1573.87 819.432 1594.93 796.243 1614.1 773.054C1672.25 703.723 1729.78 629.422 1801.44 570.739C1850.79 530.04 1907.37 496.912 1974.01 477.982C2039.71 459.289 2106.66 456.213 2176.76 460.709C2319.78 469.937 2472.55 514.896 2625.63 517.735C2787.19 520.338 2926.44 472.776 3044.95 413.384C3060.98 405.338 3076.69 397.057 3092.1 388.775C3189.54 336.007 3281.64 274.721 3391.03 219.115C3426.23 201.131 3463.01 183.857 3501.99 167.767C3662.3 101.749 3878.87 70.7507 3991.09 124.701" stroke="#8263D1" stroke-miterlimit="10"/>
<path d="M-290.758 1084.22C-42.435 844.751 438.495 764.536 795.892 900.832C929.798 952.179 1055.85 1031.69 1206.41 1029.79C1354.46 1028.14 1475.48 946.973 1564.75 854.453C1586.75 831.737 1606.87 808.075 1625.42 784.649C1681.37 714.134 1735.75 639.124 1803.96 578.548C1851.11 536.902 1905.17 501.882 1969.61 480.586C2033.11 459.526 2098.8 453.61 2168.27 455.267C2310.98 458.816 2465.32 500.462 2619.03 505.195C2780.28 510.164 2920.16 470.174 3040.55 419.3C3056.89 412.438 3072.92 405.339 3088.64 398.003C3188.28 352.335 3283.53 298.148 3395.43 246.563C3431.26 230 3468.67 213.673 3508.27 198.055C3670.16 134.64 3882.96 99.3827 3993.29 140.319" stroke="#7E66D4" stroke-miterlimit="10"/>
<path d="M-274.099 1129.88C-31.7477 885.923 446.982 797.189 809.723 926.86C945.2 975.604 1074.08 1052.51 1224.96 1048.01C1373.01 1043.99 1492.14 960.934 1578.58 867.23C1599.64 844.041 1619.13 820.142 1637.05 796.243C1690.8 724.782 1742.04 648.825 1807.1 586.356C1851.74 543.527 1903.92 507.087 1966.15 483.424C2027.76 460.235 2091.89 451.007 2160.73 450.06C2302.81 447.931 2459.34 486.027 2613.37 492.653C2774.62 499.751 2914.5 467.807 3037.09 424.978C3053.75 419.299 3070.09 413.147 3086.12 407.231C3187.97 368.661 3286.35 321.573 3400.46 274.248C3437.23 259.104 3475.27 243.487 3514.88 228.816C3678.33 168.003 3887.36 128.25 3995.49 156.645" stroke="#7B69D7" stroke-miterlimit="10"/>
<path d="M-257.125 1175.32C-20.746 926.86 455.783 829.844 823.868 952.415C961.231 998.557 1092.62 1072.86 1243.5 1065.76C1391.24 1059.13 1508.8 974.421 1592.1 879.298C1612.53 855.872 1631.39 831.5 1648.36 807.364C1699.6 734.957 1747.69 658.054 1809.62 593.928C1852.05 549.916 1902.03 511.82 1961.75 486.027C2021.16 460.472 2084.03 448.404 2152.55 444.618C2294 436.573 2452.43 471.357 2607.08 480.112C2768.02 489.34 2908.53 465.441 3033 430.894C3049.98 426.161 3066.64 421.429 3082.98 416.46C3187.03 384.988 3288.56 344.999 3405.17 301.696C3442.58 287.736 3481.24 273.301 3521.16 259.104C3686.19 200.894 3891.45 156.645 3997.69 172.263" stroke="#776BDA" stroke-miterlimit="10"/>
<path d="M-240.465 1220.75C-10.0586 967.797 464.27 862.262 837.698 978.208C976.634 1021.75 1110.85 1093.44 1261.73 1083.74C1409.47 1074.51 1525.15 987.91 1605.61 891.84C1625.42 867.941 1643.33 843.332 1659.68 818.723C1708.72 745.133 1753.67 667.52 1812.45 601.501C1852.68 556.543 1900.15 516.79 1957.98 488.631C2015.19 460.71 2076.8 445.566 2144.7 439.177C2285.52 425.452 2446.14 456.45 2601.11 467.335C2762.05 478.693 2902.55 462.603 3028.92 436.574C3046.2 433.024 3063.18 429.475 3079.84 425.452C3186.08 401.08 3290.76 368.189 3409.57 328.909C3447.61 316.368 3486.9 302.881 3527.45 289.393C3694.05 233.786 3895.53 185.278 3999.58 187.881" stroke="#746EDD" stroke-miterlimit="10"/>
<path d="M-223.491 1266.42C0.943074 1008.97 473.072 894.916 851.529 1004C992.35 1044.94 1129.4 1114.03 1280.28 1101.73C1427.7 1089.9 1542.12 1001.63 1619.45 904.145C1638.62 880.009 1655.59 855.163 1671.31 830.081C1718.15 755.544 1759.95 676.985 1815.27 609.31C1852.99 563.168 1898.57 521.759 1954.21 491.471C2009.53 461.183 2069.57 443.199 2136.84 433.971C2277.03 414.567 2439.54 442.016 2595.14 455.03C2755.76 468.518 2896.58 460.473 3025.14 442.489C3042.75 440.123 3060.03 437.52 3077.01 434.917C3185.77 417.644 3293.27 391.851 3414.6 356.831C3453.58 345.473 3493.19 333.168 3534.05 320.154C3701.9 266.913 3899.93 214.146 4002.09 203.971" stroke="#7171E1" stroke-miterlimit="10"/>
<path d="M-206.831 1311.85C11.316 1049.9 481.559 927.569 865.36 1029.79C1008.07 1068.12 1147.63 1134.62 1298.51 1119.71C1445.93 1105.51 1558.46 1015.36 1632.96 916.448C1651.51 891.839 1667.85 866.757 1682.63 841.438C1727.26 765.955 1765.61 686.449 1818.1 616.881C1853.62 569.792 1897 526.727 1950.12 494.072C2003.25 461.655 2061.71 440.359 2128.67 428.291C2268.23 403.208 2432.94 427.108 2588.53 442.252C2748.84 457.869 2890.29 457.869 3020.74 448.167C3038.66 446.984 3056.26 445.564 3073.55 443.908C3184.51 433.733 3295.47 415.04 3419 384.042C3458.61 374.104 3499.16 362.509 3540.34 350.204C3709.76 299.567 3904.02 242.54 4003.98 219.587" stroke="#6D74E4" stroke-miterlimit="10"/>
<path d="M-190.172 1357.52C22.3177 1091.08 490.36 960.224 879.19 1055.58C1023.47 1091.31 1165.86 1155.44 1316.74 1137.93C1463.85 1121.13 1574.81 1029.08 1646.16 929.227C1663.77 904.381 1679.48 878.826 1693.63 853.033C1736.06 776.367 1771.27 696.151 1820.62 624.927C1853.94 576.655 1894.8 531.933 1946.04 497.149C1996.96 462.365 2054.17 438.23 2120.49 423.322C2259.43 392.324 2426.02 412.674 2582.25 429.948C2742.56 447.695 2884.01 455.503 3016.66 454.32C3034.57 454.084 3052.81 453.847 3070.41 453.374C3183.57 450.298 3297.67 438.703 3423.4 411.728C3463.64 402.973 3504.82 392.561 3546.31 380.966C3717.31 332.932 3907.79 271.409 4005.86 235.679" stroke="#6A77E7" stroke-miterlimit="10"/>
<path d="M-173.198 1402.95C33.0051 1132.01 499.161 992.642 893.335 1081.38C1039.5 1114.5 1184.41 1176.03 1335.29 1155.91C1482.4 1136.51 1591.47 1042.81 1659.99 941.531C1676.97 916.212 1691.74 890.42 1705.26 864.391C1745.18 786.778 1777.56 705.616 1823.45 632.498C1854.57 583.044 1893.23 536.665 1941.95 499.515C1990.99 462.365 2046.62 435.153 2112.32 417.643C2250.63 380.729 2419.42 397.766 2575.96 417.17C2735.96 437.046 2878.04 452.9 3012.57 459.762C3030.8 460.709 3049.35 461.655 3067.58 462.128C3182.94 466.151 3300.19 461.655 3428.43 438.703C3469.61 431.367 3511.1 421.902 3553.22 410.781C3725.79 365.349 3912.51 299.567 4008.69 250.822" stroke="#6679EA" stroke-miterlimit="10"/>
<path d="M-156.538 1448.38C43.6924 1173.19 507.648 1025.3 907.166 1107.17C1055.22 1137.69 1202.64 1196.61 1353.83 1173.9C1500.63 1152.13 1608.13 1056.53 1673.83 954.072C1690.17 928.516 1704.32 902.251 1716.89 875.985C1754.61 797.426 1783.84 715.317 1826.59 640.307C1855.51 589.906 1891.66 541.871 1938.49 502.354C1985.33 462.838 2039.71 432.787 2104.78 412.437C2242.45 369.844 2413.14 383.332 2570.3 404.628C2730.3 426.398 2872.38 450.297 3009.11 465.678C3027.66 467.807 3046.2 469.7 3065.06 471.593C3182.62 482.715 3303.01 485.317 3433.46 466.624C3475.27 460.472 3517.39 451.953 3559.82 441.542C3733.97 398.713 3916.91 328.435 4010.89 266.913" stroke="#637CED" stroke-miterlimit="10"/>
<path d="M-139.564 1494.05C54.3796 1214.12 516.135 1057.95 920.997 1132.96C1070.62 1160.88 1220.87 1217.2 1372.06 1191.88C1518.86 1167.51 1624.79 1070.26 1687.34 966.377C1703.06 940.348 1716.26 913.846 1728.2 887.108C1763.72 807.365 1789.81 724.546 1829.11 647.88C1855.51 596.295 1889.46 546.604 1934.41 504.958C1979.04 463.076 2032.16 429.948 2096.6 406.995C2233.65 358.487 2406.54 368.189 2564.02 392.088C2723.7 415.751 2866.41 447.932 3004.71 471.594C3023.57 474.907 3042.43 477.983 3061.61 480.822C3181.37 499.043 3304.9 508.744 3437.86 494.073C3480.3 489.341 3523.36 481.769 3566.11 472.067C3741.82 431.841 3920.99 357.304 4013.09 283.004" stroke="#5F7FF0" stroke-miterlimit="10"/>
<path d="M-122.904 1539.48C65.3814 1255.06 524.937 1090.37 934.827 1158.75C1086.34 1184.07 1239.1 1237.79 1390.3 1209.86C1536.78 1182.89 1641.13 1083.74 1700.54 978.681C1715.32 952.416 1727.89 925.441 1739.21 898.465C1772.53 817.776 1795.47 734.011 1831.62 655.451C1855.82 602.921 1887.57 551.336 1930.01 507.561C1972.44 463.312 2024.31 427.108 2088.12 401.553C2224.54 347.129 2399.62 353.518 2557.42 379.547C2717.1 405.339 2859.8 445.565 3000.31 477.273C3019.49 481.532 3038.66 485.791 3058.15 489.814C3180.11 515.369 3306.79 531.933 3442.26 521.285C3485.64 517.736 3529.02 511.347 3572.08 502.118C3749.37 464.495 3924.77 385.462 4014.67 298.384" stroke="#5C82F3" stroke-miterlimit="10"/>
<path d="M-106.245 1585.15C76.0687 1296.23 533.424 1123.02 948.972 1184.78C1102.37 1207.73 1257.96 1258.85 1409.16 1228.32C1555.64 1198.98 1658.11 1097.94 1714.69 991.696C1728.83 964.957 1740.78 937.745 1751.15 910.297C1782.27 828.661 1802.07 743.95 1834.76 663.734C1856.77 610.02 1886.31 557.016 1926.55 510.874C1966.78 464.495 2017.08 425.216 2080.57 396.821C2216.36 336.481 2393.33 339.557 2551.76 367.479C2711.13 395.401 2854.46 443.436 2996.85 483.662C3016.34 489.104 3035.83 494.547 3055.63 499.753C3180.11 532.407 3309.93 556.069 3447.29 549.68C3491.3 547.551 3535.31 542.108 3578.68 533.59C3757.54 498.569 3929.17 415.277 4017.18 315.185" stroke="#5884F7" stroke-miterlimit="10"/>
<path d="M-89.2708 1630.58C86.7559 1337.17 542.225 1155.68 962.803 1210.57C1117.77 1230.92 1276.19 1279.43 1427.39 1246.3C1573.55 1214.36 1674.45 1111.66 1728.2 1004C1741.72 977.025 1752.72 949.576 1762.47 921.655C1791.07 839.073 1808.05 753.414 1837.59 671.305C1857.4 616.645 1884.43 561.748 1922.46 513.477C1960.81 464.732 2009.53 422.376 2072.71 391.378C2207.56 325.123 2387.05 324.886 2545.47 354.938C2704.84 384.989 2848.17 441.069 2992.77 489.341C3012.57 495.966 3032.37 502.355 3052.49 508.744C3179.17 548.497 3312.13 579.258 3452.01 576.892C3496.64 576.182 3541.28 571.45 3585.29 563.641C3765.71 531.223 3933.57 443.436 4019.69 330.565" stroke="#5587FA" stroke-miterlimit="10"/>
<path d="M-72.6109 1676.01C97.4434 1378.34 550.712 1188.33 976.634 1236.13C1133.49 1253.88 1294.42 1299.78 1445.62 1264.05C1591.78 1229.5 1690.8 1124.92 1741.72 1016.3C1792.64 907.694 1804.9 791.037 1840.11 678.877C1875.31 566.717 1939.75 452.664 2064.54 385.935C2198.76 314.001 2380.13 309.979 2539.18 342.396C2698.24 374.577 2841.89 438.703 2988.68 495.256C3135.16 551.81 3291.7 602.684 3456.41 604.34C3688.7 606.943 3917.22 502.592 4021.27 346.419" stroke="#518AFD" stroke-miterlimit="10"/>
</g>
</svg>
