<svg width="1876" height="1655" viewBox="300 0 1676 1355"  stroke="#20272B"  fill="none" xmlns="http://www.w3.org/2000/svg">
<path d="M1 444.891C60.7 397.391 124.7 354.391 194.6 335.691C264.5 316.891 341.4 324.891 397.6 372.491C464.6 429.191 496.2 534.891 572.4 573.991C621.8 599.291 679.5 590.991 734.4 586.691C789.3 582.391 849.3 584.591 889.8 625.391C962.6 698.391 936.5 856.491 1015.4 920.891C1067.4 963.291 1139.8 943.891 1204.4 948.891C1286.1 955.191 1362.8 1005.89 1407.6 1083.19C1452.4 1160.49 1464.5 1262.89 1439.6 1354.49"   stroke-miterlimit="10"/>
<path d="M8.30005 433.091C67.8 386.291 131.7 344.491 201.3 326.491C243.3 315.591 287.8 314.291 328.8 325.291C355.6 332.491 380.8 344.991 403 363.391C470 419.191 502.6 522.691 577.1 563.091C603.6 577.391 632.1 582.591 661.8 583.591C686.9 584.491 712.7 582.391 738.1 580.791C773.7 578.591 811.6 578.491 845 588.891C863.4 594.691 880.5 603.591 895.3 617.191C924.2 643.691 938.9 682.091 950.8 723.291C968 782.491 979.7 847.291 1017.4 889.391C1021.4 893.891 1025.8 898.091 1030.5 902.091C1082.2 945.391 1151.4 930.191 1212.2 937.991C1271.9 945.691 1327.8 979.091 1370.3 1030.59C1382.5 1045.49 1393.7 1061.89 1403.4 1079.59C1420.9 1111.49 1433.8 1147.19 1441.7 1184.29C1453.5 1239.49 1454.5 1297.59 1443.1 1350.99"  stroke-miterlimit="10"/>
<path d="M15.7 421.291C75 375.291 138.9 334.591 208.1 317.291C249.9 306.791 294 305.791 334.8 316.791C361.4 323.991 386.5 336.291 408.6 354.491C475.5 409.491 509.2 510.691 582 552.291C608.2 567.191 636 573.691 665.5 575.691C690.5 577.491 716.4 576.091 742 574.891C777.9 573.191 816.1 573.091 849.9 582.791C868.5 588.091 885.9 596.491 901 609.191C930.6 634.091 946.8 670.091 960.2 709.191C979.7 765.391 994.4 827.991 1032.6 870.591C1036.7 875.191 1041 879.491 1045.7 883.491C1097 927.691 1163 916.591 1220.2 927.291C1276.1 937.791 1327.8 972.891 1367.7 1025.89C1379.3 1041.19 1389.9 1058.09 1399.3 1076.09C1416.2 1108.69 1429.2 1144.99 1437.9 1182.29C1450.9 1237.89 1454.5 1295.59 1446.6 1347.59"  stroke-miterlimit="10"/>
<path d="M23 409.491C82.1 364.191 145.9 324.691 214.8 308.091C256.3 298.091 300.1 297.291 340.6 308.291C367 315.491 392 327.691 414 345.491C480.8 399.591 515.6 498.591 586.7 541.391C612.6 556.991 639.8 564.691 669.1 567.791C693.9 570.491 719.9 569.791 745.7 568.991C781.8 567.891 820.4 567.691 854.6 576.591C873.5 581.491 891 589.291 906.5 601.091C936.9 624.291 954.4 657.991 969.4 694.991C991.2 748.191 1008.9 808.491 1047.7 851.691C1051.8 856.291 1056.2 860.691 1060.8 864.791C1111.8 909.891 1174.6 902.991 1228 916.491C1280.2 929.791 1327.5 966.691 1365 1021.09C1375.9 1036.89 1386 1054.19 1395.1 1072.59C1411.5 1105.89 1424.6 1142.79 1434.1 1180.29C1448.3 1236.29 1454.6 1293.69 1450.1 1344.19"  stroke-miterlimit="10"/>
<path d="M30.3999 397.791C89.2999 353.291 153 314.791 221.6 299.091C262.9 289.591 306.3 289.091 346.5 299.991C372.7 307.191 397.6 319.191 419.5 336.791C486.3 390.091 522.1 486.791 591.5 530.791C617.1 546.991 643.7 555.891 672.7 560.091C697.4 563.691 723.5 563.691 749.5 563.291C785.9 562.691 824.9 562.491 859.4 570.691C878.5 575.191 896.2 582.391 912.1 593.291C943.3 614.891 962.1 646.191 978.8 681.091C1002.8 731.391 1023.6 789.291 1062.9 833.091C1067.1 837.691 1071.4 842.191 1076.1 846.391C1126.8 892.391 1186.5 889.691 1236 905.991C1284.6 921.991 1327.4 960.791 1362.5 1016.69C1372.7 1032.89 1382.2 1050.69 1391 1069.49C1406.8 1103.59 1420.1 1140.99 1430.3 1178.69C1445.7 1235.09 1454.7 1292.09 1453.6 1341.19"  stroke-miterlimit="10"/>
<path d="M37.7 385.991C96.5 342.191 160 304.891 228.3 289.891C269.3 280.791 312.4 280.591 352.3 291.491C378.3 298.591 403 310.491 424.9 327.791C491.6 380.191 528.5 474.791 596.2 519.891C621.5 536.691 647.4 546.891 676.3 552.191C700.9 556.691 727.1 557.391 753.3 557.491C789.9 557.491 829.3 557.191 864.2 564.591C883.5 568.691 901.5 575.191 917.7 585.291C949.7 605.191 969.9 634.191 988.1 666.991C1014.4 714.291 1038.2 769.991 1078.1 814.391C1082.3 819.091 1086.7 823.591 1091.3 827.891C1141.7 874.691 1198.2 876.191 1244 895.391C1288.9 914.291 1327.3 954.791 1359.9 1012.09C1369.4 1028.79 1378.4 1046.99 1386.9 1066.09C1402.2 1100.89 1415.6 1138.79 1426.6 1176.79C1443.2 1233.59 1454.8 1290.19 1457.3 1337.89"  stroke-miterlimit="10"/>
<path d="M45 374.191C103.6 331.191 167.1 294.991 235 280.691C275.8 272.091 318.5 272.091 358.1 282.991C384 290.091 408.5 301.891 430.3 318.791C496.9 370.391 534.9 462.791 601 508.991C626 526.491 651.3 537.891 679.9 544.291C704.3 549.691 730.6 551.091 757.1 551.591C794 552.091 833.7 551.791 869 558.391C888.5 561.991 906.8 567.991 923.3 577.191C956.1 595.491 977.6 622.091 997.4 652.791C1025.9 697.091 1052.8 750.491 1093.2 795.491C1097.5 800.191 1101.9 804.791 1106.4 809.191C1156.5 856.891 1209.9 862.591 1251.8 884.591C1293.1 906.291 1327 948.591 1357.2 1007.29C1366 1024.49 1374.5 1043.09 1382.7 1062.59C1397.4 1098.19 1410.9 1136.59 1422.7 1174.79C1440.5 1231.99 1454.8 1288.19 1460.7 1334.49"  stroke-miterlimit="10"/>
<path d="M52.3999 362.392C110.8 320.192 174.2 285.092 241.8 271.492C282.3 263.292 324.7 263.592 364 274.492C389.7 281.592 414.1 293.192 435.8 309.892C502.4 360.592 541.3 450.892 605.8 498.292C630.5 516.492 655.1 529.091 683.6 536.491C707.9 542.791 734.3 544.992 760.9 545.792C798 546.892 838.1 546.592 873.8 552.392C893.5 555.592 912 560.992 928.9 569.292C962.5 585.892 985.4 610.192 1006.7 638.892C1037.5 680.292 1067.4 731.392 1108.3 776.892C1112.6 781.692 1117 786.292 1121.6 790.792C1171.4 839.392 1221.7 849.391 1259.8 874.091C1297.5 898.691 1326.8 942.692 1354.6 1002.79C1362.7 1020.39 1370.8 1039.39 1378.6 1059.29C1392.9 1095.59 1406.4 1134.59 1418.9 1172.99C1437.9 1230.59 1454.8 1286.39 1464.2 1331.29"  stroke-miterlimit="10"/>
<path d="M59.7 350.591C117.9 309.091 181.2 275.091 248.5 262.391C288.7 254.691 330.8 255.291 369.9 266.091C395.4 273.191 419.6 284.691 441.3 300.991C507.8 350.791 547.8 439.091 610.6 487.491C635 506.291 659 520.191 687.2 528.691C711.4 535.891 737.8 538.791 764.7 539.991C802.1 541.591 842.5 541.291 878.6 546.291C898.5 549.091 917.3 553.791 934.5 561.291C968.9 576.291 993.1 598.191 1016 624.791C1049.1 663.191 1082 711.991 1123.5 758.091C1127.8 762.891 1132.3 767.591 1136.8 772.191C1186.3 821.691 1233.5 835.891 1267.7 863.391C1301.9 890.891 1326.6 936.591 1352 998.191C1359.5 1016.29 1367 1035.69 1374.5 1055.99C1388.2 1092.99 1401.9 1132.59 1415.2 1171.19C1435.4 1229.19 1455 1284.59 1467.8 1328.09"  stroke-miterlimit="10"/>
<path d="M67 338.791C125 298.091 188.2 265.191 255.2 253.191C295.2 245.891 336.9 246.791 375.7 257.591C401 264.691 425.1 275.991 446.7 291.991C513.2 340.991 554.2 427.191 615.3 476.591C639.4 496.091 662.7 511.191 690.8 520.691C714.8 528.891 741.4 532.391 768.5 533.991C806.1 536.191 847 535.791 883.4 539.991C903.5 542.291 922.5 546.491 940 553.091C975.2 566.391 1000.8 585.991 1025.3 610.491C1060.7 645.891 1096.6 692.391 1138.6 739.091C1143 743.991 1147.4 748.691 1151.9 753.391C1201 803.791 1245.2 822.391 1275.5 852.491C1306.1 882.891 1326.3 930.291 1349.2 993.291C1356 1011.89 1363 1031.69 1370.2 1052.29C1383.4 1089.99 1397.1 1130.19 1411.2 1169.09C1432.6 1227.49 1454.8 1282.49 1471.1 1324.59"  stroke-miterlimit="10"/>
<path d="M74.3999 327.091C132.2 287.091 195.4 255.391 262 244.091C301.7 237.291 343 238.391 381.6 249.191C406.7 256.291 430.7 267.491 452.3 283.191C518.7 331.291 560.7 415.491 620.2 465.891C644 486.091 666.7 502.391 694.5 512.991C718.4 522.091 745 526.291 772.3 528.391C810.2 531.091 851.4 530.691 888.2 534.191C908.6 536.091 927.8 539.591 945.6 545.391C981.7 556.991 1008.6 574.291 1034.6 596.691C1072.3 629.191 1111.2 673.391 1153.8 720.591C1158.2 725.491 1162.7 730.291 1167.1 735.091C1215.9 786.391 1257 809.391 1283.5 842.091C1310.5 875.591 1326.2 924.491 1346.7 988.891C1352.8 1007.89 1359.3 1028.19 1366.1 1049.19C1378.7 1087.69 1392.6 1128.39 1407.5 1167.49C1430.1 1226.29 1455 1280.89 1474.8 1321.59"  stroke-miterlimit="10"/>
<path d="M81.7 315.291C139.3 276.091 202.4 245.391 268.7 234.891C308.2 228.491 349.1 229.891 387.4 240.691C412.4 247.791 436.2 258.791 457.7 274.191C524 321.491 567 403.591 624.9 454.991C648.4 475.891 670.4 493.491 698 505.091C721.8 515.091 748.5 519.991 776 522.491C814.1 525.791 855.7 525.291 892.9 527.991C913.5 529.491 933 532.391 951.1 537.291C988 547.191 1016.3 562.191 1043.8 582.491C1083.8 611.991 1125.7 653.891 1168.8 701.691C1173.3 706.691 1177.7 711.591 1182.2 716.391C1230.7 768.591 1268.7 795.991 1291.3 831.291C1314.7 867.791 1325.8 918.391 1343.9 984.091C1349.3 1003.59 1355.3 1024.29 1361.8 1045.69C1373.9 1084.89 1387.9 1126.19 1403.5 1165.49C1427.2 1224.69 1454.8 1278.89 1478.1 1318.19"  stroke-miterlimit="10"/>
<path d="M89.1001 303.491C146.6 264.991 209.5 235.491 275.5 225.791C314.7 219.891 355.3 221.491 393.3 232.291C418.1 239.291 441.7 250.291 463.2 265.391C529.5 311.791 573.4 391.891 629.7 444.391C652.9 465.991 674.3 484.791 701.7 497.391C725.3 508.291 752.1 513.891 779.9 516.791C818.3 520.591 860.2 520.091 897.8 522.091C918.6 523.191 938.4 525.391 956.8 529.491C994.5 537.691 1024.1 550.391 1053.2 568.591C1095.5 595.091 1140.4 634.791 1184.1 683.091C1188.6 688.091 1193.1 693.091 1197.5 697.991C1245.7 751.091 1280.5 782.991 1299.3 820.791C1319 860.391 1325.7 912.491 1341.4 979.691C1346.1 999.591 1351.5 1020.79 1357.8 1042.49C1369.3 1082.49 1383.5 1124.19 1399.8 1163.79C1424.7 1223.39 1455 1277.19 1481.7 1315.09"  stroke-miterlimit="10"/>
<path d="M96.3999 291.691C153.7 253.991 216.5 225.591 282.2 216.591C321.2 211.091 361.4 213.091 399.1 223.791C423.7 230.791 447.2 241.591 468.6 256.391C534.8 301.991 579.7 380.091 634.4 433.491C657.3 455.791 678.1 475.791 705.2 489.491C728.7 501.291 755.6 507.691 783.6 510.891C822.3 515.291 864.5 514.691 902.5 515.891C923.5 516.491 943.5 518.191 962.3 521.391C1000.9 527.891 1031.8 538.291 1062.4 554.491C1107 578.091 1154.9 615.391 1199.1 664.291C1203.7 669.291 1208.1 674.391 1212.5 679.391C1260.4 733.291 1292 769.691 1307.1 810.091C1323.1 852.791 1325.3 906.391 1338.7 974.991C1342.7 995.391 1347.6 1016.99 1353.6 1039.09C1364.6 1079.79 1378.8 1122.09 1396 1161.89C1422.1 1221.89 1455 1275.29 1485.2 1311.79"  stroke-miterlimit="10"/>
<path d="M103.7 279.892C160.8 242.892 223.6 215.692 288.9 207.392C327.6 202.392 367.5 204.592 405 215.292C429.4 222.292 452.8 232.892 474.1 247.392C540.3 292.092 586.1 368.292 639.2 422.592C661.7 445.592 681.9 466.791 708.9 481.491C732.3 494.291 759.2 501.292 787.4 504.892C826.3 509.792 868.9 509.192 907.3 509.592C928.5 509.792 948.8 510.791 967.9 513.191C1007.3 517.991 1039.6 526.091 1071.8 540.191C1118.7 560.791 1169.6 595.792 1214.4 645.292C1219 650.392 1223.5 655.492 1227.9 660.592C1275.5 715.392 1303.8 756.292 1315.2 799.192C1327.4 845.092 1325.2 900.091 1336.2 970.091C1339.5 990.991 1343.9 1012.99 1349.6 1035.39C1360 1076.79 1374.4 1119.69 1392.3 1159.69C1419.6 1220.09 1455.2 1273.09 1488.8 1308.19"  stroke-miterlimit="10"/>
<path d="M111.1 268.091C168 231.891 230.7 205.691 295.7 198.291C334.2 193.791 373.7 196.191 410.9 206.891C435.1 213.891 458.3 224.391 479.6 238.591C545.7 282.491 592.4 356.691 644 411.891C666.2 435.691 685.8 457.991 712.5 473.791C735.7 487.491 762.8 495.191 791.2 499.191C830.4 504.691 873.4 503.991 912.1 503.691C933.5 503.491 954.1 503.791 973.5 505.291C1013.8 508.391 1047.4 514.091 1081.1 526.191C1130.3 543.791 1184.2 576.591 1229.5 626.591C1234.1 631.691 1238.6 636.891 1243 642.091C1290.3 697.791 1315.3 743.191 1323.1 788.591C1331.5 837.591 1325 894.191 1333.6 965.491C1336.2 986.891 1340.1 1009.29 1345.5 1032.09C1355.3 1074.29 1369.9 1117.69 1388.6 1157.89C1417.1 1218.69 1455.4 1271.29 1492.5 1304.99"  stroke-miterlimit="10"/>
<path d="M118.4 256.391C175.1 220.991 237.7 195.891 302.4 189.191C340.6 185.091 379.8 187.791 416.7 198.491C440.8 205.491 463.8 215.791 485 229.691C551 272.691 598.7 344.991 648.7 401.091C670.5 425.591 689.5 449.091 716.1 465.891C739.2 480.491 766.3 488.891 795 493.391C834.4 499.391 877.8 498.791 916.9 497.591C938.5 496.991 959.4 496.691 979.1 497.291C1020.2 498.691 1055.1 502.091 1090.4 512.091C1142 526.691 1198.8 557.191 1244.6 607.791C1249.3 612.991 1253.8 618.191 1258.1 623.491C1305 680.091 1326.7 729.891 1330.9 777.891C1335.5 829.891 1324.6 888.091 1330.8 960.891C1332.7 982.691 1336.1 1005.59 1341.1 1028.79C1350.3 1071.69 1365 1115.69 1384.5 1156.09C1414.2 1217.29 1455.1 1269.49 1495.7 1301.89"  stroke-miterlimit="10"/>
<path d="M125.7 244.591C182.2 209.891 244.8 185.991 309.1 179.991C347.1 176.391 385.9 179.391 422.5 189.991C446.4 196.991 469.3 207.191 490.4 220.791C556.4 262.891 604.9 333.391 653.4 390.391C674.9 415.591 693.3 440.391 719.6 458.191C742.6 473.691 769.8 482.791 798.6 487.691C838.3 494.291 882 493.591 921.5 491.691C943.4 490.591 964.4 490.091 984.5 489.491C1026.4 488.191 1062.7 490.291 1099.5 498.191C1153.4 509.791 1213.2 537.991 1259.6 589.191C1264.3 594.391 1268.8 599.691 1273.2 605.091C1319.8 662.591 1338.1 716.891 1338.7 767.391C1339.4 822.491 1324.2 882.191 1328.1 956.391C1329.3 978.691 1332.2 1001.99 1336.9 1025.49C1345.6 1069.19 1360.4 1113.69 1380.6 1154.29C1411.5 1215.89 1455.1 1267.69 1499.1 1298.69"  stroke-miterlimit="10"/>
<path d="M133.1 232.791C189.4 198.891 251.9 176.091 316 170.791C353.7 167.591 392.2 170.891 428.5 181.491C452.2 188.391 475 198.491 496 211.791C561.9 253.091 611.3 321.591 658.3 379.491C679.4 405.491 697.2 431.391 723.4 450.291C746.2 466.791 773.5 476.491 802.6 481.791C842.5 488.891 886.6 488.191 926.5 485.491C948.6 483.991 969.9 482.391 990.3 481.391C1033.1 479.291 1070.7 478.191 1109.1 483.991C1165.3 492.591 1228.1 518.591 1275 570.291C1279.8 575.591 1284.3 580.891 1288.6 586.391C1334.9 644.791 1349.8 703.391 1346.9 756.591C1343.7 814.691 1324.2 875.991 1325.7 951.591C1326.2 974.291 1328.6 997.991 1333 1021.99C1341.1 1066.39 1356.1 1111.49 1377.1 1152.29C1409.2 1214.29 1455.4 1265.79 1502.9 1295.29"  stroke-miterlimit="10"/>
<path d="M140.4 220.991C196.6 187.791 258.9 166.091 322.7 161.691C360.2 158.991 398.3 162.491 434.3 173.091C457.8 179.991 480.4 189.991 501.4 202.891C567.2 243.291 617.4 309.891 663 368.691C683.7 395.391 700.9 422.491 726.9 442.391C749.6 459.791 777 470.291 806.3 475.891C846.5 483.591 890.9 482.791 931.2 479.291C953.5 477.391 975.1 475.091 995.8 473.291C1039.4 469.491 1078.4 465.991 1118.3 469.791C1176.8 475.391 1242.6 499.091 1290.1 551.391C1294.9 556.691 1299.5 562.091 1303.7 567.691C1349.7 626.991 1361.2 689.991 1354.7 745.791C1347.6 806.891 1323.8 869.791 1323 946.891C1322.7 970.091 1324.7 994.191 1328.8 1018.49C1336.3 1063.59 1351.5 1109.19 1373.2 1150.29C1406.5 1212.69 1455.4 1263.79 1506.3 1291.89"  stroke-miterlimit="10"/>
<path d="M147.8 209.191C203.8 176.791 266 156.191 329.5 152.491C366.7 150.191 404.5 153.992 440.3 164.592C463.6 171.492 486.1 181.291 507 193.991C572.7 233.591 623.7 298.291 667.8 357.891C688.1 385.391 704.8 413.591 730.6 434.591C753.1 452.891 780.6 464.091 810.2 470.091C850.6 478.291 895.5 477.492 936.1 473.292C958.6 470.992 980.4 468.091 1001.5 465.391C1045.9 459.791 1086.2 454.091 1127.7 455.891C1188.5 458.491 1257.3 479.992 1305.3 532.792C1310.2 538.192 1314.7 543.692 1319 549.292C1364.7 609.492 1372.8 676.892 1362.8 735.292C1351.8 799.392 1323.7 863.991 1320.6 942.391C1319.6 966.091 1321 990.592 1324.9 1015.29C1331.9 1061.19 1347.1 1107.29 1369.7 1148.59C1404.2 1211.39 1455.7 1262.09 1510.2 1288.79"  stroke-miterlimit="10"/>
<path d="M155.1 197.392C210.9 165.692 273.1 146.292 336.2 143.292C373.2 141.492 410.6 145.492 446.1 156.092C469.3 162.992 491.6 172.592 512.5 184.992C578.2 223.692 630 286.592 672.7 346.992C692.6 375.192 708.7 404.592 734.3 426.592C756.7 445.892 784.3 457.692 814 464.092C854.7 472.892 899.9 471.991 940.9 466.991C963.6 464.191 985.7 460.691 1007.1 457.191C1052.4 449.891 1094 441.792 1137 441.592C1200.1 441.092 1271.9 460.392 1320.5 513.792C1325.4 519.192 1330 524.791 1334.2 530.491C1379.6 591.591 1384.3 663.292 1370.7 724.392C1355.7 791.492 1323.4 857.692 1317.9 937.492C1316.2 961.592 1317.1 986.592 1320.7 1011.69C1327.1 1058.29 1342.5 1104.99 1365.8 1146.49C1401.5 1209.69 1455.7 1259.99 1513.6 1285.29"  stroke-miterlimit="10"/>
<path d="M162.4 185.691C218 154.791 280.1 136.391 342.9 134.191C379.6 132.791 416.6 137.191 451.9 147.691C474.9 154.591 497 164.091 517.9 176.091C583.6 213.991 636.1 274.891 677.4 336.191C696.9 365.191 712.4 395.791 737.9 418.791C760.1 438.991 787.8 451.491 817.8 458.391C858.7 467.691 904.3 466.791 945.7 460.991C968.6 457.791 991 453.591 1012.7 449.291C1058.8 440.191 1101.8 429.891 1146.3 427.591C1211.7 424.091 1286.5 441.091 1335.6 495.091C1340.6 500.491 1345.1 506.191 1349.3 511.991C1394.4 573.891 1395.7 649.991 1378.5 713.791C1359.6 783.791 1323 851.691 1315.2 932.891C1312.8 957.491 1313.2 982.891 1316.4 1008.29C1322.3 1055.69 1337.8 1102.89 1361.8 1144.59C1398.7 1208.19 1455.5 1258.09 1516.9 1281.99"  stroke-miterlimit="10"/>
<path d="M169.8 173.891C225.2 143.691 287.2 126.491 349.7 125.091C386.2 124.191 422.8 128.791 457.8 139.291C480.6 146.191 502.6 155.491 523.4 167.291C589 204.291 642.3 263.391 682.2 325.591C701.3 355.391 716.3 387.091 741.5 411.191C763.6 432.391 791.4 445.491 821.6 452.791C862.8 462.691 908.7 461.691 950.5 455.191C973.6 451.591 996.2 446.691 1018.3 441.591C1065.2 430.791 1109.6 418.091 1155.7 413.791C1223.4 407.291 1301.2 422.091 1350.8 476.591C1355.8 482.091 1360.4 487.791 1364.5 493.691C1409.2 556.491 1407.2 636.891 1386.5 703.391C1363.7 776.291 1322.7 845.891 1312.6 928.591C1309.5 953.691 1309.4 979.491 1312.3 1005.29C1317.6 1053.39 1333.2 1101.19 1358.1 1143.09C1396.2 1207.09 1455.7 1256.59 1520.5 1279.09"  stroke-miterlimit="10"/>
<path d="M177.1 162.091C232.3 132.691 294.2 116.591 356.4 115.891C392.6 115.491 428.9 120.291 463.6 130.791C486.2 137.591 508.1 146.891 528.8 158.291C594.3 194.391 648.4 251.691 686.9 314.691C705.6 345.191 720 378.091 745.1 403.191C767 425.291 794.9 439.091 825.3 446.791C866.7 457.191 913 456.191 955.2 448.891C978.6 444.791 1001.4 439.291 1023.8 433.391C1071.5 420.791 1117.2 405.891 1164.9 399.491C1234.9 389.991 1315.7 402.491 1365.9 457.591C1370.9 463.091 1375.5 468.891 1379.7 474.891C1424.1 538.591 1418.8 623.291 1394.4 692.491C1367.7 768.391 1322.4 839.592 1310 923.692C1306.2 949.192 1305.6 975.491 1308.2 1001.59C1313 1050.39 1328.7 1098.79 1354.3 1140.89C1393.6 1205.29 1455.7 1254.39 1524 1275.49"  stroke-miterlimit="10"/>
<path d="M184.4 150.291C239.4 121.591 301.3 106.691 363.1 106.691C399.1 106.691 435 111.791 469.4 122.291C491.8 129.091 513.5 138.191 534.2 149.391C599.7 184.691 654.5 239.991 691.7 303.891C709.9 335.191 723.9 369.191 748.7 395.391C770.5 418.391 798.5 432.991 829.1 440.991C870.8 451.991 917.4 450.991 960 442.891C983.6 438.391 1006.6 432.191 1029.4 425.491C1077.9 411.091 1125 393.991 1174.2 385.491C1246.5 372.991 1330.3 383.291 1381 438.891C1386.1 444.491 1390.7 450.291 1394.8 456.391C1438.9 520.991 1430.1 609.891 1402.3 681.891C1371.6 760.591 1322.2 833.591 1307.3 919.091C1302.8 945.091 1301.7 971.791 1304 998.291C1308.2 1047.89 1324.1 1096.79 1350.5 1139.09C1391 1203.89 1455.8 1252.59 1527.5 1272.29"  stroke-miterlimit="10"/>
<path d="M191.8 138.491C278.5 94.3914 382.4 85.3914 475.4 113.891C568.4 142.391 649.4 207.991 696.5 293.091C714.3 325.191 727.7 360.291 752.4 387.491C803.5 443.891 890.3 452.091 964.9 436.691C1039.5 421.291 1109 386.791 1183.6 371.291C1258.2 355.791 1345 363.791 1396.3 419.991C1456 485.491 1444.8 589.391 1410.3 671.091C1375.8 752.791 1322 827.391 1304.8 914.291C1289.8 990.191 1305.1 1071.79 1346.8 1136.99C1388.5 1202.19 1455.9 1250.49 1531.2 1268.79"  stroke-miterlimit="10"/>
<path d="M214.9 133.292C301 90.5915 403.7 82.4915 495.4 111.492C587.1 140.492 667 205.692 712.6 290.392C730.4 323.392 742.8 359.892 766.6 388.092C815 445.192 899 454.892 971.2 442.292C1043.4 429.692 1111.6 398.392 1185.5 384.792C1260.3 370.992 1347.5 377.391 1400.3 432.191C1461.3 495.791 1453.4 599.092 1420.4 681.292C1387.4 763.492 1332.1 838.492 1312.9 923.192C1296.3 996.392 1310.3 1074.89 1348.9 1138.19C1387.6 1201.39 1451.1 1248.99 1523.6 1268.09"  stroke-miterlimit="10"/>
<path d="M238 128.091C323.4 86.6913 425 79.6913 515.4 109.091C605.8 138.491 684.6 203.491 728.8 287.691C746.6 321.691 757.9 359.391 781 388.591C826.7 446.291 907.8 457.491 977.7 447.791C1047.6 438.091 1114.4 409.891 1187.5 398.191C1262.5 386.191 1350.4 390.891 1404.4 444.191C1466.8 505.791 1462.1 608.591 1430.5 691.191C1398.9 773.791 1342.3 849.291 1321 931.791C1302.8 1002.29 1315.4 1077.79 1351.1 1138.99C1386.8 1200.19 1446.4 1247.19 1516.1 1266.99"  stroke-miterlimit="10"/>
<path d="M261.1 122.891C345.9 82.7914 446.4 76.8914 535.4 106.691C624.4 136.491 702.1 201.291 744.9 284.991C762.7 319.891 772.9 358.891 795.3 389.191C838.3 447.391 916.5 460.291 984.1 453.391C1051.7 446.491 1117.1 421.591 1189.5 411.691C1264.8 401.391 1353.1 404.391 1408.6 456.291C1472.4 515.891 1470.8 618.091 1440.7 701.291C1410.6 784.491 1352.5 860.291 1329.2 940.591C1309.5 1008.29 1320.7 1080.89 1353.4 1139.99C1386.1 1199.09 1441.8 1245.49 1508.7 1266.09"  stroke-miterlimit="10"/>
<path d="M284.2 117.691C368.4 78.9913 467.7 73.9913 555.5 104.291C643.3 134.591 719.7 199.091 761.1 282.291C778.9 318.091 788.1 358.391 809.7 389.791C850.1 448.391 925.4 463.091 990.6 458.991C1055.8 454.891 1120 433.191 1191.6 425.191C1267.2 416.691 1356 417.991 1412.8 468.391C1477.9 526.091 1479.6 627.691 1451 711.291C1422.3 794.891 1363 870.991 1337.5 949.291C1316.4 1014.19 1326 1083.79 1355.7 1140.89C1385.4 1197.99 1437.2 1243.69 1501.4 1264.99"  stroke-miterlimit="10"/>
<path d="M307.4 112.491C391 75.0913 489.1 71.1913 575.6 101.891C662.1 132.591 737.3 196.891 777.4 279.591C795.2 316.391 803.3 357.791 824.1 390.291C861.9 449.291 934.2 465.691 997.1 464.491C1060.1 463.291 1122.8 444.791 1193.6 438.591C1269.5 431.891 1358.7 431.491 1416.9 480.391C1483.3 536.091 1488.3 637.191 1461.1 721.291C1433.9 805.391 1373.2 881.791 1345.6 957.891C1323.1 1019.99 1331.2 1086.69 1357.9 1141.79C1384.6 1196.79 1432.5 1241.89 1493.9 1263.99"  stroke-miterlimit="10"/>
<path d="M330.5 107.291C413.5 71.2915 510.5 68.3915 595.6 99.4915C680.7 130.592 754.7 194.791 793.5 276.891C811.3 314.691 818.3 357.192 838.4 390.892C873.7 450.192 942.9 468.492 1003.5 470.092C1064.1 471.692 1125.6 456.592 1195.6 452.092C1271.8 447.192 1361.4 445.091 1421.1 492.491C1488.8 546.291 1497.1 646.792 1471.3 731.292C1445.5 815.792 1383.7 892.391 1353.8 966.591C1330 1025.79 1336.5 1089.69 1360.2 1142.69C1383.9 1195.69 1427.9 1240.19 1486.5 1262.99"  stroke-miterlimit="10"/>
<path d="M353.6 102.091C436 67.3914 531.8 65.4914 615.6 97.0914C699.4 128.691 772.1 192.591 809.6 274.191C827.4 312.891 833.4 356.491 852.7 391.391C885.5 450.891 951.6 471.191 1009.9 475.591C1068.2 480.091 1128.3 468.191 1197.6 465.491C1274.1 462.391 1364.1 458.591 1425.2 504.491C1494.2 556.391 1505.8 656.191 1481.5 741.291C1457.2 826.291 1394.2 903.091 1362.1 975.291C1337.1 1031.69 1341.8 1092.59 1362.5 1143.59C1383.2 1194.59 1423.3 1238.39 1479.2 1261.99"  stroke-miterlimit="10"/>
<path d="M376.7 96.8913C458.5 63.4913 553.1 62.6913 635.7 94.6913C718.3 126.691 789.6 190.491 825.8 271.391C843.6 311.091 848.6 355.791 867 391.891C897.4 451.491 960.4 473.791 1016.4 481.091C1072.4 488.391 1131.3 476.091 1199.6 478.891C1276.4 481.991 1366.8 472.091 1429.3 516.491C1499.6 566.491 1514.5 665.691 1491.6 751.191C1468.7 836.691 1404.6 913.591 1370.2 983.891C1344 1037.39 1347 1095.49 1364.7 1144.39C1382.4 1193.29 1418.6 1236.49 1471.7 1260.89"  stroke-miterlimit="10"/>
<path d="M399.8 91.6913C481 59.6913 574.5 59.8913 655.7 92.2913C736.9 124.691 806.9 188.391 842 268.791C859.7 309.491 863.8 355.191 881.4 392.491C909.5 452.291 969.2 476.591 1022.9 486.691C1076.6 496.791 1134.3 487.691 1201.7 492.391C1278.7 497.691 1369.6 485.691 1433.6 528.591C1505.2 576.591 1523.4 675.291 1501.9 761.291C1480.4 847.291 1415.4 924.191 1378.5 992.691C1351.2 1043.29 1352.3 1098.59 1367.1 1145.49C1381.8 1192.39 1414.1 1234.89 1464.4 1260.09"  stroke-miterlimit="10"/>
<path d="M422.9 86.4915C503.4 55.7915 595.8 56.9915 675.7 89.8915C755.6 122.791 824.2 186.292 858.1 265.992C875.8 307.692 879 354.291 895.7 392.991C921.5 452.791 977.9 479.191 1029.3 492.191C1080.6 505.191 1136.9 503.491 1203.7 505.691C1281.2 508.291 1372.3 499.091 1437.7 540.591C1510.5 586.691 1532.1 684.792 1512.1 771.292C1492.1 857.792 1426.1 934.791 1386.7 1001.39C1358.4 1049.19 1357.6 1101.59 1369.3 1146.39C1381 1191.19 1409.4 1233.19 1456.9 1258.99"  stroke-miterlimit="10"/>
<path d="M446 81.2914C525.9 51.9914 617.1 54.1915 695.8 87.4915C774.5 120.791 841.6 184.291 874.3 263.391C891.9 306.091 894.3 353.691 910.1 393.591C933.7 453.491 986.7 482.091 1035.7 497.791C1084.7 513.591 1139.7 515.391 1205.6 519.191C1283.5 523.791 1374.9 512.791 1441.7 552.691C1515.8 596.891 1540.6 694.291 1522.1 781.291C1503.6 868.291 1436.7 945.291 1394.7 1009.99C1365.5 1054.89 1362.7 1104.39 1371.4 1147.19C1380.1 1189.99 1404.5 1231.29 1449.4 1257.89"  stroke-miterlimit="10"/>
<path d="M469.2 76.1914C548.5 48.1914 638.6 51.4914 715.9 85.2914C793.2 119.091 859 182.291 890.6 260.791C908.2 304.491 909.7 352.991 924.5 394.291C946 454.091 995.6 484.891 1042.3 503.491C1089 522.091 1142.7 527.391 1207.8 532.791C1286 539.391 1377.8 526.491 1446.1 564.891C1521.5 607.291 1549.6 703.991 1532.5 791.491C1515.4 878.991 1447.9 956.091 1403.1 1018.89C1373.1 1060.99 1368.1 1107.59 1373.9 1148.29C1379.7 1189.09 1400.1 1229.69 1442.2 1257.09"  stroke-miterlimit="10"/>
<path d="M492.3 70.9914C571 44.3914 659.9 48.5914 735.9 82.8914C811.9 117.191 876.2 180.091 906.7 257.991C924.2 302.691 925 352.091 938.8 394.691C958.2 454.491 1004.3 487.391 1048.7 508.891C1093.1 530.391 1145.5 539.091 1209.8 546.091C1288.4 554.691 1380.4 539.891 1450.2 576.791C1526.8 617.291 1558.3 713.391 1542.7 801.291C1527.1 889.191 1458.9 966.491 1411.3 1027.39C1380.6 1066.69 1373.4 1110.39 1376.1 1149.09C1378.9 1187.79 1395.4 1227.79 1434.7 1255.99"  stroke-miterlimit="10"/>
<path d="M515.4 65.7914C593.5 40.4914 681.2 45.7914 755.9 80.4914C830.6 115.191 893.5 178.191 922.8 255.391C940.2 301.091 940.3 351.391 953.1 395.391C970.5 455.091 1013 490.291 1055.1 514.591C1097.2 538.891 1148.3 551.191 1211.8 559.691C1290.7 570.291 1383.1 553.691 1454.3 588.991C1532.2 627.591 1567 723.091 1552.8 811.491C1538.6 899.891 1470 977.291 1419.4 1036.29C1388 1072.89 1378.5 1113.49 1378.3 1150.19C1378.1 1186.89 1390.7 1226.29 1427.2 1255.19"  stroke-miterlimit="10"/>
<path d="M538.5 60.5915C616 36.5915 702.6 42.8915 776 78.0915C849.4 113.291 910.7 176.091 939 252.691C956.3 299.391 955.7 350.591 967.4 395.891C982.8 455.591 1021.8 492.991 1061.5 520.091C1101.2 547.191 1151.1 563.091 1213.7 573.091C1293 585.791 1385.7 567.191 1458.4 600.991C1537.5 637.691 1575.7 732.491 1562.9 821.391C1550.2 910.291 1481.1 987.991 1427.5 1044.89C1395.5 1078.79 1383.7 1116.39 1380.5 1150.99C1377.3 1185.59 1386 1224.39 1419.8 1253.99"  stroke-miterlimit="10"/>
<path d="M561.6 55.3914C638.5 32.7914 723.9 40.0914 796 75.6914C868.1 111.291 927.9 174.091 955.2 249.991C972.3 297.691 971.2 349.791 981.8 396.491C995.3 456.091 1030.6 495.691 1068 525.691C1105.4 555.691 1153.9 575.091 1215.8 586.591C1295.4 601.391 1388.4 580.891 1462.6 613.091C1542.9 647.991 1584.5 742.091 1573.2 831.491C1561.9 920.891 1492.6 998.891 1435.8 1053.59C1403.3 1084.89 1389 1119.39 1382.8 1151.99C1376.6 1184.59 1381.4 1222.69 1412.4 1253.09"  stroke-miterlimit="10"/>
<path d="M584.7 50.1913C660.9 28.8913 745.2 37.2913 816 73.2913C886.8 109.291 945.1 171.991 971.3 247.291C988.3 295.991 986.7 348.991 996.1 397.091C1007.8 456.691 1039.3 498.491 1074.4 531.291C1109.5 564.091 1156.7 587.091 1217.8 600.091C1297.8 617.091 1391.1 594.591 1466.7 625.191C1548.3 658.191 1593.2 751.691 1583.3 841.491C1573.4 931.291 1504 1009.89 1444 1062.29C1411.1 1091.09 1394.3 1122.29 1385.1 1152.89C1375.9 1183.49 1376.8 1220.89 1405 1252.09"  stroke-miterlimit="10"/>
<path d="M607.9 44.9913C683.5 25.0913 766.7 34.3913 836.1 70.8913C905.5 107.391 962.3 169.991 987.5 244.591C1004.3 294.391 1002.3 348.191 1010.5 397.591C1020.3 457.091 1048.1 501.091 1080.9 536.791C1113.7 572.491 1159.6 599.091 1219.8 613.491C1300.1 632.691 1393.8 608.191 1470.9 637.191C1553.7 668.391 1601.9 761.191 1593.5 851.491C1585.1 941.791 1515.6 1020.99 1452.2 1070.99C1418.9 1097.29 1399.6 1125.29 1387.4 1153.79C1375.2 1182.29 1372.2 1219.19 1397.7 1251.09"  stroke-miterlimit="10"/>
<path d="M631 39.7915C706 21.1915 788 31.5915 856.2 68.4915C924.4 105.391 979.5 167.991 1003.7 241.891C1020.3 292.691 1017.9 347.391 1024.8 398.191C1032.9 457.691 1056.9 503.891 1087.3 542.391C1117.7 580.891 1162.3 611.191 1221.8 626.991C1302.4 648.391 1396.4 621.891 1475 649.391C1559 678.791 1610.6 770.791 1603.7 861.691C1596.8 952.591 1527.3 1032.49 1460.4 1079.89C1426.7 1103.79 1404.8 1128.49 1389.6 1154.89C1374.4 1181.39 1367.5 1217.59 1390.2 1250.29"  stroke-miterlimit="10"/>
<path d="M654.1 34.5914C728.5 17.3914 809.3 28.7914 876.2 66.0914C943.1 103.391 996.6 165.991 1019.9 239.091C1036.4 290.891 1033.7 346.491 1039.2 398.591C1045.5 458.091 1065.7 506.491 1093.8 547.791C1121.9 589.091 1165.2 623.091 1223.9 640.291C1304.7 663.991 1399.2 635.391 1479.2 661.291C1564.5 688.891 1619.4 780.191 1613.9 871.491C1608.4 962.791 1539 1043.79 1468.6 1088.39C1434.5 1109.99 1410.1 1131.19 1391.9 1155.69C1373.7 1180.19 1362.9 1215.69 1382.8 1249.19"  stroke-miterlimit="10"/>
<path d="M677.2 29.3914C751 13.4914 830.6 25.8914 896.2 63.6914C961.8 101.491 1013.7 163.891 1036 236.391C1052.2 289.291 1049.3 345.691 1053.5 399.191C1058.1 458.691 1074.4 509.191 1100.2 553.391C1126 597.591 1167.9 635.191 1225.8 653.791C1306.9 679.791 1401.7 649.091 1483.3 673.391C1569.8 699.191 1628.1 789.791 1624 881.591C1619.9 973.391 1550.7 1055.59 1476.7 1097.09C1442.2 1116.49 1415.2 1134.19 1394.1 1156.59C1372.9 1178.99 1358.2 1213.99 1375.3 1248.09"  stroke-miterlimit="10"/>
<path d="M700.3 24.1913C773.5 9.59131 852 23.0913 916.2 61.2913C980.4 99.4913 1030.8 161.891 1052.1 233.691C1068.1 287.591 1065 344.891 1067.8 399.691C1070.8 459.191 1083.2 511.891 1106.6 558.891C1130.1 605.891 1170.6 647.191 1227.8 667.191C1309.1 695.491 1404.4 662.691 1487.4 685.391C1575.1 709.391 1636.8 799.291 1634.2 891.491C1631.6 983.791 1562.4 1067.39 1484.9 1105.69C1450.1 1122.89 1420.5 1137.09 1396.3 1157.39C1372.2 1177.79 1353.4 1212.09 1367.9 1246.99"  stroke-miterlimit="10"/>
<path d="M723.4 18.9914C796 5.79143 873.3 20.2914 936.3 58.8914C999.3 97.4914 1048 159.891 1068.4 230.991C1084.2 285.991 1081 344.191 1082.2 400.291C1083.5 459.891 1092 514.691 1113.1 564.491C1134.2 614.291 1173.4 659.391 1229.9 680.591C1311.4 711.291 1407.2 676.291 1491.6 697.391C1580.6 719.591 1645.6 808.691 1644.4 901.491C1643.2 994.191 1574.2 1079.59 1493.1 1114.39C1457.8 1129.49 1425.7 1139.99 1398.6 1158.29C1371.5 1176.59 1348.8 1210.29 1360.5 1245.99"  stroke-miterlimit="10"/>
<path d="M746.5 13.7915C818.5 1.89149 894.6 17.3915 956.3 56.4915C1018 95.5915 1065 157.891 1084.5 228.291C1100 284.291 1096.8 343.392 1096.5 400.792C1096.2 460.392 1100.7 517.291 1119.5 569.991C1138.3 622.591 1176 671.491 1231.8 693.991C1313.5 727.091 1409.7 689.991 1495.7 709.391C1585.9 729.791 1654.3 818.191 1654.5 911.391C1654.7 1004.59 1585.8 1091.89 1501.2 1122.99C1465.4 1136.09 1430.9 1142.89 1400.8 1159.19C1370.7 1175.49 1344.1 1208.49 1353 1244.99"  stroke-miterlimit="10"/>
<path d="M769.7 8.5913C841 -1.9087 916.1 14.5913 976.4 54.1913C1036.7 93.7913 1082.1 155.891 1100.7 225.691C1115.9 282.791 1112.7 342.791 1110.9 401.491C1109 461.291 1109.5 520.191 1126 575.591C1142.5 631.091 1178.8 683.591 1233.9 707.491C1315.8 742.991 1412.5 703.791 1499.9 721.491C1591.4 740.191 1663.1 827.791 1664.8 921.491C1666.5 1015.19 1597.6 1104.59 1509.5 1131.79C1473.2 1142.99 1436.3 1145.99 1403.1 1160.19C1370 1174.39 1339.5 1206.89 1345.6 1244.09"  stroke-miterlimit="10"/>
<path d="M792.8 3.39139C863.5 -5.80861 937.4 11.7914 996.5 51.7914C1055.5 91.7914 1099.2 153.891 1116.9 222.991C1131.8 281.091 1128.7 342.091 1125.2 401.991C1121.8 461.891 1118.3 522.791 1132.4 581.091C1146.6 639.391 1181.4 695.691 1235.9 720.891C1317.9 758.791 1415.2 717.391 1504 733.491C1596.7 750.391 1671.7 837.291 1674.9 931.391C1678.1 1025.49 1609 1117.29 1517.7 1140.39C1480.7 1149.69 1441.5 1148.79 1405.4 1160.99C1369.3 1173.19 1334.9 1204.99 1338.3 1242.89"  stroke-miterlimit="10"/>
</svg>