



<svg width="349" height="129" viewBox="0 0 349 129" fill="none" xmlns="http://www.w3.org/2000/svg">
<path d="M347 129C348.105 129 349 128.105 349 127C349 125.895 348.105 125 347 125C345.895 125 345 125.895 345 127C345 128.105 345.895 129 347 129Z" fill="#D2CCFF"/>
<path d="M324 129C325.105 129 326 128.105 326 127C326 125.895 325.105 125 324 125C322.895 125 322 125.895 322 127C322 128.105 322.895 129 324 129Z" fill="#D2CCFF"/>
<path d="M301 129C302.105 129 303 128.105 303 127C303 125.895 302.105 125 301 125C299.895 125 299 125.895 299 127C299 128.105 299.895 129 301 129Z" fill="#D2CCFF"/>
<path d="M278 129C279.105 129 280 128.105 280 127C280 125.895 279.105 125 278 125C276.895 125 276 125.895 276 127C276 128.105 276.895 129 278 129Z" fill="#D2CCFF"/>
<path d="M255 129C256.105 129 257 128.105 257 127C257 125.895 256.105 125 255 125C253.895 125 253 125.895 253 127C253 128.105 253.895 129 255 129Z" fill="#D2CCFF"/>
<path d="M232 129C233.105 129 234 128.105 234 127C234 125.895 233.105 125 232 125C230.895 125 230 125.895 230 127C230 128.105 230.895 129 232 129Z" fill="#D2CCFF"/>
<path d="M209 129C210.105 129 211 128.105 211 127C211 125.895 210.105 125 209 125C207.895 125 207 125.895 207 127C207 128.105 207.895 129 209 129Z" fill="#D2CCFF"/>
<path d="M186 129C187.105 129 188 128.105 188 127C188 125.895 187.105 125 186 125C184.895 125 184 125.895 184 127C184 128.105 184.895 129 186 129Z" fill="#D2CCFF"/>
<path d="M163 129C164.105 129 165 128.105 165 127C165 125.895 164.105 125 163 125C161.895 125 161 125.895 161 127C161 128.105 161.895 129 163 129Z" fill="#D2CCFF"/>
<path d="M140 129C141.105 129 142 128.105 142 127C142 125.895 141.105 125 140 125C138.895 125 138 125.895 138 127C138 128.105 138.895 129 140 129Z" fill="#D2CCFF"/>
<path d="M117 129C118.105 129 119 128.105 119 127C119 125.895 118.105 125 117 125C115.895 125 115 125.895 115 127C115 128.105 115.895 129 117 129Z" fill="#D2CCFF"/>
<path d="M94 129C95.1046 129 96 128.105 96 127C96 125.895 95.1046 125 94 125C92.8954 125 92 125.895 92 127C92 128.105 92.8954 129 94 129Z" fill="#D2CCFF"/>
<path d="M71 129C72.1046 129 73 128.105 73 127C73 125.895 72.1046 125 71 125C69.8954 125 69 125.895 69 127C69 128.105 69.8954 129 71 129Z" fill="#D2CCFF"/>
<path d="M48 129C49.1046 129 50 128.105 50 127C50 125.895 49.1046 125 48 125C46.8954 125 46 125.895 46 127C46 128.105 46.8954 129 48 129Z" fill="#D2CCFF"/>
<path d="M25 129C26.1046 129 27 128.105 27 127C27 125.895 26.1046 125 25 125C23.8954 125 23 125.895 23 127C23 128.105 23.8954 129 25 129Z" fill="#D2CCFF"/>
<path d="M2 129C3.10457 129 4 128.105 4 127C4 125.895 3.10457 125 2 125C0.89543 125 0 125.895 0 127C0 128.105 0.89543 129 2 129Z" fill="#D2CCFF"/>
<path d="M347 104C348.105 104 349 103.105 349 102C349 100.895 348.105 100 347 100C345.895 100 345 100.895 345 102C345 103.105 345.895 104 347 104Z" fill="#D2CCFF"/>
<path d="M324 104C325.105 104 326 103.105 326 102C326 100.895 325.105 100 324 100C322.895 100 322 100.895 322 102C322 103.105 322.895 104 324 104Z" fill="#D2CCFF"/>
<path d="M301 104C302.105 104 303 103.105 303 102C303 100.895 302.105 100 301 100C299.895 100 299 100.895 299 102C299 103.105 299.895 104 301 104Z" fill="#D2CCFF"/>
<path d="M278 104C279.105 104 280 103.105 280 102C280 100.895 279.105 100 278 100C276.895 100 276 100.895 276 102C276 103.105 276.895 104 278 104Z" fill="#D2CCFF"/>
<path d="M255 104C256.105 104 257 103.105 257 102C257 100.895 256.105 100 255 100C253.895 100 253 100.895 253 102C253 103.105 253.895 104 255 104Z" fill="#D2CCFF"/>
<path d="M232 104C233.105 104 234 103.105 234 102C234 100.895 233.105 100 232 100C230.895 100 230 100.895 230 102C230 103.105 230.895 104 232 104Z" fill="#D2CCFF"/>
<path d="M209 104C210.105 104 211 103.105 211 102C211 100.895 210.105 100 209 100C207.895 100 207 100.895 207 102C207 103.105 207.895 104 209 104Z" fill="#D2CCFF"/>
<path d="M186 104C187.105 104 188 103.105 188 102C188 100.895 187.105 100 186 100C184.895 100 184 100.895 184 102C184 103.105 184.895 104 186 104Z" fill="#D2CCFF"/>
<path d="M163 104C164.105 104 165 103.105 165 102C165 100.895 164.105 100 163 100C161.895 100 161 100.895 161 102C161 103.105 161.895 104 163 104Z" fill="#D2CCFF"/>
<path d="M140 104C141.105 104 142 103.105 142 102C142 100.895 141.105 100 140 100C138.895 100 138 100.895 138 102C138 103.105 138.895 104 140 104Z" fill="#D2CCFF"/>
<path d="M117 104C118.105 104 119 103.105 119 102C119 100.895 118.105 100 117 100C115.895 100 115 100.895 115 102C115 103.105 115.895 104 117 104Z" fill="#D2CCFF"/>
<path d="M94 104C95.1046 104 96 103.105 96 102C96 100.895 95.1046 100 94 100C92.8954 100 92 100.895 92 102C92 103.105 92.8954 104 94 104Z" fill="#D2CCFF"/>
<path d="M71 104C72.1046 104 73 103.105 73 102C73 100.895 72.1046 100 71 100C69.8954 100 69 100.895 69 102C69 103.105 69.8954 104 71 104Z" fill="#D2CCFF"/>
<path d="M48 104C49.1046 104 50 103.105 50 102C50 100.895 49.1046 100 48 100C46.8954 100 46 100.895 46 102C46 103.105 46.8954 104 48 104Z" fill="#D2CCFF"/>
<path d="M25 104C26.1046 104 27 103.105 27 102C27 100.895 26.1046 100 25 100C23.8954 100 23 100.895 23 102C23 103.105 23.8954 104 25 104Z" fill="#D2CCFF"/>
<path d="M2 104C3.10457 104 4 103.105 4 102C4 100.895 3.10457 100 2 100C0.89543 100 0 100.895 0 102C0 103.105 0.89543 104 2 104Z" fill="#D2CCFF"/>
<path d="M347 79C348.105 79 349 78.1046 349 77C349 75.8954 348.105 75 347 75C345.895 75 345 75.8954 345 77C345 78.1046 345.895 79 347 79Z" fill="#D2CCFF"/>
<path d="M324 79C325.105 79 326 78.1046 326 77C326 75.8954 325.105 75 324 75C322.895 75 322 75.8954 322 77C322 78.1046 322.895 79 324 79Z" fill="#D2CCFF"/>
<path d="M301 79C302.105 79 303 78.1046 303 77C303 75.8954 302.105 75 301 75C299.895 75 299 75.8954 299 77C299 78.1046 299.895 79 301 79Z" fill="#D2CCFF"/>
<path d="M278 79C279.105 79 280 78.1046 280 77C280 75.8954 279.105 75 278 75C276.895 75 276 75.8954 276 77C276 78.1046 276.895 79 278 79Z" fill="#D2CCFF"/>
<path d="M255 79C256.105 79 257 78.1046 257 77C257 75.8954 256.105 75 255 75C253.895 75 253 75.8954 253 77C253 78.1046 253.895 79 255 79Z" fill="#D2CCFF"/>
<path d="M232 79C233.105 79 234 78.1046 234 77C234 75.8954 233.105 75 232 75C230.895 75 230 75.8954 230 77C230 78.1046 230.895 79 232 79Z" fill="#D2CCFF"/>
<path d="M209 79C210.105 79 211 78.1046 211 77C211 75.8954 210.105 75 209 75C207.895 75 207 75.8954 207 77C207 78.1046 207.895 79 209 79Z" fill="#D2CCFF"/>
<path d="M186 79C187.105 79 188 78.1046 188 77C188 75.8954 187.105 75 186 75C184.895 75 184 75.8954 184 77C184 78.1046 184.895 79 186 79Z" fill="#D2CCFF"/>
<path d="M163 79C164.105 79 165 78.1046 165 77C165 75.8954 164.105 75 163 75C161.895 75 161 75.8954 161 77C161 78.1046 161.895 79 163 79Z" fill="#D2CCFF"/>
<path d="M140 79C141.105 79 142 78.1046 142 77C142 75.8954 141.105 75 140 75C138.895 75 138 75.8954 138 77C138 78.1046 138.895 79 140 79Z" fill="#D2CCFF"/>
<path d="M117 79C118.105 79 119 78.1046 119 77C119 75.8954 118.105 75 117 75C115.895 75 115 75.8954 115 77C115 78.1046 115.895 79 117 79Z" fill="#D2CCFF"/>
<path d="M94 79C95.1046 79 96 78.1046 96 77C96 75.8954 95.1046 75 94 75C92.8954 75 92 75.8954 92 77C92 78.1046 92.8954 79 94 79Z" fill="#D2CCFF"/>
<path d="M71 79C72.1046 79 73 78.1046 73 77C73 75.8954 72.1046 75 71 75C69.8954 75 69 75.8954 69 77C69 78.1046 69.8954 79 71 79Z" fill="#D2CCFF"/>
<path d="M48 79C49.1046 79 50 78.1046 50 77C50 75.8954 49.1046 75 48 75C46.8954 75 46 75.8954 46 77C46 78.1046 46.8954 79 48 79Z" fill="#D2CCFF"/>
<path d="M25 79C26.1046 79 27 78.1046 27 77C27 75.8954 26.1046 75 25 75C23.8954 75 23 75.8954 23 77C23 78.1046 23.8954 79 25 79Z" fill="#D2CCFF"/>
<path d="M2 79C3.10457 79 4 78.1046 4 77C4 75.8954 3.10457 75 2 75C0.89543 75 0 75.8954 0 77C0 78.1046 0.89543 79 2 79Z" fill="#D2CCFF"/>
<path d="M347 54C348.105 54 349 53.1046 349 52C349 50.8954 348.105 50 347 50C345.895 50 345 50.8954 345 52C345 53.1046 345.895 54 347 54Z" fill="#D2CCFF"/>
<path d="M324 54C325.105 54 326 53.1046 326 52C326 50.8954 325.105 50 324 50C322.895 50 322 50.8954 322 52C322 53.1046 322.895 54 324 54Z" fill="#D2CCFF"/>
<path d="M301 54C302.105 54 303 53.1046 303 52C303 50.8954 302.105 50 301 50C299.895 50 299 50.8954 299 52C299 53.1046 299.895 54 301 54Z" fill="#D2CCFF"/>
<path d="M278 54C279.105 54 280 53.1046 280 52C280 50.8954 279.105 50 278 50C276.895 50 276 50.8954 276 52C276 53.1046 276.895 54 278 54Z" fill="#D2CCFF"/>
<path d="M255 54C256.105 54 257 53.1046 257 52C257 50.8954 256.105 50 255 50C253.895 50 253 50.8954 253 52C253 53.1046 253.895 54 255 54Z" fill="#D2CCFF"/>
<path d="M232 54C233.105 54 234 53.1046 234 52C234 50.8954 233.105 50 232 50C230.895 50 230 50.8954 230 52C230 53.1046 230.895 54 232 54Z" fill="#D2CCFF"/>
<path d="M209 54C210.105 54 211 53.1046 211 52C211 50.8954 210.105 50 209 50C207.895 50 207 50.8954 207 52C207 53.1046 207.895 54 209 54Z" fill="#D2CCFF"/>
<path d="M186 54C187.105 54 188 53.1046 188 52C188 50.8954 187.105 50 186 50C184.895 50 184 50.8954 184 52C184 53.1046 184.895 54 186 54Z" fill="#D2CCFF"/>
<path d="M163 54C164.105 54 165 53.1046 165 52C165 50.8954 164.105 50 163 50C161.895 50 161 50.8954 161 52C161 53.1046 161.895 54 163 54Z" fill="#D2CCFF"/>
<path d="M140 54C141.105 54 142 53.1046 142 52C142 50.8954 141.105 50 140 50C138.895 50 138 50.8954 138 52C138 53.1046 138.895 54 140 54Z" fill="#D2CCFF"/>
<path d="M117 54C118.105 54 119 53.1046 119 52C119 50.8954 118.105 50 117 50C115.895 50 115 50.8954 115 52C115 53.1046 115.895 54 117 54Z" fill="#D2CCFF"/>
<path d="M94 54C95.1046 54 96 53.1046 96 52C96 50.8954 95.1046 50 94 50C92.8954 50 92 50.8954 92 52C92 53.1046 92.8954 54 94 54Z" fill="#D2CCFF"/>
<path d="M71 54C72.1046 54 73 53.1046 73 52C73 50.8954 72.1046 50 71 50C69.8954 50 69 50.8954 69 52C69 53.1046 69.8954 54 71 54Z" fill="#D2CCFF"/>
<path d="M48 54C49.1046 54 50 53.1046 50 52C50 50.8954 49.1046 50 48 50C46.8954 50 46 50.8954 46 52C46 53.1046 46.8954 54 48 54Z" fill="#D2CCFF"/>
<path d="M25 54C26.1046 54 27 53.1046 27 52C27 50.8954 26.1046 50 25 50C23.8954 50 23 50.8954 23 52C23 53.1046 23.8954 54 25 54Z" fill="#D2CCFF"/>
<path d="M2 54C3.10457 54 4 53.1046 4 52C4 50.8954 3.10457 50 2 50C0.89543 50 0 50.8954 0 52C0 53.1046 0.89543 54 2 54Z" fill="#D2CCFF"/>
<path d="M347 29C348.105 29 349 28.1046 349 27C349 25.8954 348.105 25 347 25C345.895 25 345 25.8954 345 27C345 28.1046 345.895 29 347 29Z" fill="#D2CCFF"/>
<path d="M324 29C325.105 29 326 28.1046 326 27C326 25.8954 325.105 25 324 25C322.895 25 322 25.8954 322 27C322 28.1046 322.895 29 324 29Z" fill="#D2CCFF"/>
<path d="M301 29C302.105 29 303 28.1046 303 27C303 25.8954 302.105 25 301 25C299.895 25 299 25.8954 299 27C299 28.1046 299.895 29 301 29Z" fill="#D2CCFF"/>
<path d="M278 29C279.105 29 280 28.1046 280 27C280 25.8954 279.105 25 278 25C276.895 25 276 25.8954 276 27C276 28.1046 276.895 29 278 29Z" fill="#D2CCFF"/>
<path d="M255 29C256.105 29 257 28.1046 257 27C257 25.8954 256.105 25 255 25C253.895 25 253 25.8954 253 27C253 28.1046 253.895 29 255 29Z" fill="#D2CCFF"/>
<path d="M232 29C233.105 29 234 28.1046 234 27C234 25.8954 233.105 25 232 25C230.895 25 230 25.8954 230 27C230 28.1046 230.895 29 232 29Z" fill="#D2CCFF"/>
<path d="M209 29C210.105 29 211 28.1046 211 27C211 25.8954 210.105 25 209 25C207.895 25 207 25.8954 207 27C207 28.1046 207.895 29 209 29Z" fill="#D2CCFF"/>
<path d="M186 29C187.105 29 188 28.1046 188 27C188 25.8954 187.105 25 186 25C184.895 25 184 25.8954 184 27C184 28.1046 184.895 29 186 29Z" fill="#D2CCFF"/>
<path d="M163 29C164.105 29 165 28.1046 165 27C165 25.8954 164.105 25 163 25C161.895 25 161 25.8954 161 27C161 28.1046 161.895 29 163 29Z" fill="#D2CCFF"/>
<path d="M140 29C141.105 29 142 28.1046 142 27C142 25.8954 141.105 25 140 25C138.895 25 138 25.8954 138 27C138 28.1046 138.895 29 140 29Z" fill="#D2CCFF"/>
<path d="M117 29C118.105 29 119 28.1046 119 27C119 25.8954 118.105 25 117 25C115.895 25 115 25.8954 115 27C115 28.1046 115.895 29 117 29Z" fill="#D2CCFF"/>
<path d="M94 29C95.1046 29 96 28.1046 96 27C96 25.8954 95.1046 25 94 25C92.8954 25 92 25.8954 92 27C92 28.1046 92.8954 29 94 29Z" fill="#D2CCFF"/>
<path d="M71 29C72.1046 29 73 28.1046 73 27C73 25.8954 72.1046 25 71 25C69.8954 25 69 25.8954 69 27C69 28.1046 69.8954 29 71 29Z" fill="#D2CCFF"/>
<path d="M48 29C49.1046 29 50 28.1046 50 27C50 25.8954 49.1046 25 48 25C46.8954 25 46 25.8954 46 27C46 28.1046 46.8954 29 48 29Z" fill="#D2CCFF"/>
<path d="M25 29C26.1046 29 27 28.1046 27 27C27 25.8954 26.1046 25 25 25C23.8954 25 23 25.8954 23 27C23 28.1046 23.8954 29 25 29Z" fill="#D2CCFF"/>
<path d="M2 29C3.10457 29 4 28.1046 4 27C4 25.8954 3.10457 25 2 25C0.89543 25 0 25.8954 0 27C0 28.1046 0.89543 29 2 29Z" fill="#D2CCFF"/>
<path d="M347 4C348.105 4 349 3.10457 349 2C349 0.89543 348.105 0 347 0C345.895 0 345 0.89543 345 2C345 3.10457 345.895 4 347 4Z" fill="#D2CCFF"/>
<path d="M324 4C325.105 4 326 3.10457 326 2C326 0.89543 325.105 0 324 0C322.895 0 322 0.89543 322 2C322 3.10457 322.895 4 324 4Z" fill="#D2CCFF"/>
<path d="M301 4C302.105 4 303 3.10457 303 2C303 0.89543 302.105 0 301 0C299.895 0 299 0.89543 299 2C299 3.10457 299.895 4 301 4Z" fill="#D2CCFF"/>
<path d="M278 4C279.105 4 280 3.10457 280 2C280 0.89543 279.105 0 278 0C276.895 0 276 0.89543 276 2C276 3.10457 276.895 4 278 4Z" fill="#D2CCFF"/>
<path d="M255 4C256.105 4 257 3.10457 257 2C257 0.89543 256.105 0 255 0C253.895 0 253 0.89543 253 2C253 3.10457 253.895 4 255 4Z" fill="#D2CCFF"/>
<path d="M232 4C233.105 4 234 3.10457 234 2C234 0.89543 233.105 0 232 0C230.895 0 230 0.89543 230 2C230 3.10457 230.895 4 232 4Z" fill="#D2CCFF"/>
<path d="M209 4C210.105 4 211 3.10457 211 2C211 0.89543 210.105 0 209 0C207.895 0 207 0.89543 207 2C207 3.10457 207.895 4 209 4Z" fill="#D2CCFF"/>
<path d="M186 4C187.105 4 188 3.10457 188 2C188 0.89543 187.105 0 186 0C184.895 0 184 0.89543 184 2C184 3.10457 184.895 4 186 4Z" fill="#D2CCFF"/>
<path d="M163 4C164.105 4 165 3.10457 165 2C165 0.89543 164.105 0 163 0C161.895 0 161 0.89543 161 2C161 3.10457 161.895 4 163 4Z" fill="#D2CCFF"/>
<path d="M140 4C141.105 4 142 3.10457 142 2C142 0.89543 141.105 0 140 0C138.895 0 138 0.89543 138 2C138 3.10457 138.895 4 140 4Z" fill="#D2CCFF"/>
<path d="M117 4C118.105 4 119 3.10457 119 2C119 0.89543 118.105 0 117 0C115.895 0 115 0.89543 115 2C115 3.10457 115.895 4 117 4Z" fill="#D2CCFF"/>
<path d="M94 4C95.1046 4 96 3.10457 96 2C96 0.89543 95.1046 0 94 0C92.8954 0 92 0.89543 92 2C92 3.10457 92.8954 4 94 4Z" fill="#D2CCFF"/>
<path d="M71 4C72.1046 4 73 3.10457 73 2C73 0.89543 72.1046 0 71 0C69.8954 0 69 0.89543 69 2C69 3.10457 69.8954 4 71 4Z" fill="#D2CCFF"/>
<path d="M48 4C49.1046 4 50 3.10457 50 2C50 0.89543 49.1046 0 48 0C46.8954 0 46 0.89543 46 2C46 3.10457 46.8954 4 48 4Z" fill="#D2CCFF"/>
<path d="M25 4C26.1046 4 27 3.10457 27 2C27 0.89543 26.1046 0 25 0C23.8954 0 23 0.89543 23 2C23 3.10457 23.8954 4 25 4Z" fill="#D2CCFF"/>
<path d="M2 4C3.10457 4 4 3.10457 4 2C4 0.89543 3.10457 0 2 0C0.89543 0 0 0.89543 0 2C0 3.10457 0.89543 4 2 4Z" fill="#D2CCFF"/>
</svg>
