<svg width="288" height="385" viewBox="0 0 288 385" fill="none" xmlns="http://www.w3.org/2000/svg">
<path d="M148.33 330.14C148.31 330.14 148.29 330.13 148.27 330.11L127.09 306.87C127.06 306.83 127.05 306.77 127.06 306.72C127.07 306.67 127.11 306.63 127.15 306.63H149.65C149.68 306.63 149.7 306.65 149.72 306.67C149.74 306.7 149.75 306.73 149.75 306.77L148.43 330.01C148.43 330.06 148.4 330.1 148.37 330.12C148.36 330.14 148.35 330.14 148.33 330.14ZM127.43 306.89L148.25 329.74L149.55 306.89H127.43Z" fill="#e07a5f"/>
<path d="M127.16 306.89C127.14 306.89 127.12 306.88 127.11 306.87L81.8701 248.2C81.8401 248.17 81.8201 248.12 81.8301 248.07C81.8301 248.02 81.8601 247.98 81.9001 247.96L145.67 240.48C145.71 240.46 145.75 240.48 145.77 240.52C145.8 240.56 145.81 240.61 145.79 240.66L127.26 306.81C127.25 306.85 127.23 306.88 127.2 306.89C127.18 306.89 127.17 306.89 127.16 306.89ZM82.1401 248.13L127.11 306.56L145.53 240.82L82.1401 248.13Z" fill="#e07a5f"/>
<path d="M145.69 240.74C145.66 240.74 145.62 240.71 145.6 240.67C145.58 240.61 145.59 240.54 145.63 240.5L162.44 162.23C162.47 162.2 162.51 162.2 162.54 162.22C162.57 162.24 162.59 162.29 162.59 162.34L186.81 220.95C186.81 221.01 186.78 221.06 186.75 221.07L145.72 240.74C145.71 240.74 145.7 240.74 145.69 240.74ZM162.4 162.6L146.27 240.19L186.62 220.85L162.4 162.6Z" fill="#e07a5f"/>
<path d="M262.16 371.26C262.11 371.26 262.07 371.21 262.06 371.14L254.12 265.65C254.12 265.6 254.13 265.55 254.17 265.52C254.2 265.49 254.25 265.5 254.28 265.53L276.78 288.77C276.81 288.8 276.82 288.86 276.82 288.91L262.26 371.16C262.25 371.22 262.21 371.26 262.16 371.26ZM254.34 265.93L262.2 370.34L276.61 288.94L254.34 265.93Z" fill="#e07a5f"/>
<path d="M186.72 221.07C186.69 221.07 186.67 221.06 186.65 221.03C186.63 221.01 186.62 220.97 186.62 220.94L162.4 162.33C162.4 162.29 162.41 162.25 162.44 162.23C162.46 162.21 162.49 162.19 162.52 162.2L272.78 219.02C272.83 219.03 272.86 219.09 272.86 219.16C272.86 219.23 272.82 219.28 272.76 219.28L186.72 221.07ZM162.59 162.49L186.81 220.81L271.68 219.04L162.59 162.49Z" fill="#e07a5f"/>
<path d="M254.22 265.77C254.2 265.77 254.19 265.76 254.18 265.76L186.68 221.06C186.64 221.03 186.62 220.97 186.63 220.91C186.64 220.85 186.68 220.81 186.72 220.81L272.75 219.02C272.79 219.02 272.82 219.04 272.83 219.08C272.85 219.12 272.85 219.17 272.83 219.21L254.3 265.7C254.29 265.75 254.25 265.77 254.22 265.77ZM187.13 221.07L254.18 265.47L272.59 219.3L187.13 221.07Z" fill="#e07a5f"/>
<path d="M194.01 384.5H194.4L159.36 357.02L262 371.24L256.39 384.5H256.62L262.25 371.19C262.27 371.15 262.27 371.1 262.25 371.06C262.24 371.02 262.21 371 262.17 370.99L158.93 356.69C158.88 356.67 158.84 356.72 158.83 356.78C158.81 356.84 158.83 356.91 158.87 356.94L194.01 384.5Z" fill="#e07a5f"/>
<path d="M287.85 281.22L276.89 288.62L287.85 242.85V241.99L276.63 288.84C276.62 288.89 276.63 288.95 276.66 288.98C276.68 289 276.7 289.01 276.72 289.01C276.73 289.01 276.75 289.01 276.76 289L287.84 281.52V281.22H287.85Z" fill="#e07a5f"/>
<path d="M287.85 299.79L276.91 288.9L287.85 281.51V281.21L276.68 288.75C276.65 288.77 276.63 288.81 276.63 288.86C276.63 288.9 276.64 288.95 276.67 288.98L287.85 300.11V299.79Z" fill="#e07a5f"/>
<path d="M14.0501 384.5L12.1301 362.43L41.5401 384.5H41.9401L12.0601 362.07C12.0301 362.04 11.9901 362.05 11.9601 362.08C11.9301 362.11 11.9101 362.15 11.9201 362.21L13.8601 384.51H14.0501V384.5Z" fill="#e07a5f"/>
<path d="M41.5401 384.5H41.9401L12.5001 362.4L43.7001 367.67L46.8101 384.5H47.0101L43.8701 367.52C43.8601 367.47 43.8301 367.43 43.7901 367.42L12.0201 362.06C11.9701 362.04 11.9301 362.09 11.9201 362.15C11.9101 362.21 11.9201 362.28 11.9601 362.31L41.5401 384.5Z" fill="#e07a5f"/>
<path d="M127.16 306.89C127.15 306.89 127.14 306.89 127.13 306.88L87.42 287.21C87.39 287.2 87.37 287.16 87.36 287.12L81.83 248.11C81.82 248.06 81.83 248 81.87 247.97C81.9 247.94 81.95 247.94 81.98 247.97L127.21 306.63C127.25 306.65 127.27 306.69 127.27 306.75C127.26 306.83 127.22 306.89 127.16 306.89ZM87.53 286.99L126.42 306.25L82.08 248.39L87.53 286.99Z" fill="#e07a5f"/>
<path d="M43.77 367.68H43.76L11.99 362.32C11.96 362.32 11.93 362.29 11.92 362.26C11.91 362.23 11.9 362.18 11.91 362.15L31.76 285.27C31.77 285.21 31.82 285.17 31.86 285.18C31.9 285.18 31.94 285.23 31.95 285.29L43.86 367.53C43.87 367.57 43.86 367.61 43.84 367.64C43.82 367.67 43.8 367.68 43.77 367.68ZM12.14 362.08L43.65 367.4L31.83 285.81L12.14 362.08Z" fill="#e07a5f"/>
<path d="M43.77 367.68C43.76 367.68 43.76 367.68 43.75 367.68C43.71 367.67 43.68 367.63 43.67 367.58L31.76 285.33C31.76 285.29 31.76 285.25 31.78 285.22C31.8 285.19 31.83 285.17 31.86 285.17L87.45 286.96C87.49 286.96 87.52 286.99 87.53 287.03C87.55 287.07 87.54 287.13 87.52 287.17L43.84 367.63C43.83 367.66 43.8 367.68 43.77 367.68ZM31.98 285.44L43.83 367.23L87.26 287.22L31.98 285.44Z" fill="#e07a5f"/>
<path d="M87.45 287.23L31.85 285.44C31.8 285.44 31.76 285.39 31.76 285.32C31.76 285.26 31.79 285.19 31.83 285.18L81.88 247.96C81.93 247.94 81.99 247.98 82 248.05L87.53 287.02C87.54 287.04 87.55 287.07 87.55 287.09C87.55 287.17 87.51 287.23 87.45 287.23ZM32.57 285.2L87.32 286.96L81.85 248.25L32.57 285.2Z" fill="#e07a5f"/>
<path d="M152.2 384.5L158.98 357.02L194.02 384.5H194.41L158.98 356.71C158.95 356.69 158.93 356.69 158.9 356.7C158.87 356.72 158.85 356.74 158.84 356.78L152 384.5H152.2Z" fill="#e07a5f"/>
<path d="M126.33 384.5L158.75 357.13L152 384.5H152.21L159.03 356.87C159.04 356.82 159.03 356.76 159 356.72C158.97 356.69 158.92 356.68 158.89 356.71L125.97 384.5H126.33Z" fill="#e07a5f"/>
<path d="M113.92 351.59C113.9 351.59 113.87 351.58 113.85 351.55C113.82 351.51 113.81 351.45 113.83 351.4L127.07 306.7C127.08 306.66 127.11 306.63 127.14 306.62C127.17 306.61 127.2 306.62 127.23 306.65L148.41 329.89C148.44 329.92 148.45 329.96 148.45 330.01C148.45 330.05 148.42 330.09 148.39 330.11L113.98 351.57C113.95 351.59 113.93 351.59 113.92 351.59ZM127.2 306.98L114.1 351.21L148.15 329.98L127.2 306.98Z" fill="#e07a5f"/>
<path d="M158.92 356.96L113.91 351.6C113.87 351.59 113.83 351.55 113.82 351.49C113.81 351.43 113.83 351.37 113.87 351.35L148.28 329.9C148.33 329.87 148.38 329.9 148.41 329.96L158.99 356.75C159.01 356.77 159.02 356.81 159.02 356.84C159.02 356.9 158.97 356.94 158.92 356.96ZM114.29 351.37L158.75 356.67L148.29 330.18L114.29 351.37Z" fill="#e07a5f"/>
<path d="M47.01 384.5L43.89 367.66L113.1 351.78L55.44 384.5H55.94L113.96 351.58C114.01 351.55 114.03 351.49 114.02 351.42C114.01 351.36 113.96 351.32 113.91 351.33L43.76 367.42C43.73 367.43 43.71 367.45 43.7 367.48C43.68 367.51 43.68 367.55 43.69 367.58L46.82 384.5H47.01Z" fill="#e07a5f"/>
<path d="M43.7701 367.68C43.7401 367.68 43.7 367.66 43.69 367.62C43.67 367.58 43.67 367.52 43.69 367.47L87.3701 287.02C87.3901 286.98 87.42 286.96 87.45 286.97C87.48 286.97 87.51 287 87.53 287.04L114 351.41C114.01 351.45 114.02 351.49 114 351.53C113.99 351.57 113.96 351.6 113.93 351.6L43.78 367.69C43.78 367.68 43.7801 367.68 43.7701 367.68ZM87.4401 287.34L44.0001 367.37L113.78 351.36L87.4401 287.34Z" fill="#e07a5f"/>
<path d="M55.9401 384.5L113.84 351.65L115.95 384.5H116.15L114.02 351.45C114.02 351.41 114 351.37 113.97 351.35C113.94 351.33 113.91 351.32 113.88 351.34L55.4301 384.5H55.9401Z" fill="#e07a5f"/>
<path d="M113.92 351.59C113.88 351.59 113.85 351.56 113.83 351.52L87.36 287.16C87.34 287.11 87.34 287.05 87.37 287.01C87.4 286.97 87.44 286.95 87.48 286.97L127.19 306.64C127.21 306.65 127.23 306.68 127.25 306.71C127.26 306.74 127.26 306.78 127.25 306.81L114.01 351.51C114 351.56 113.96 351.59 113.92 351.59C113.93 351.59 113.92 351.59 113.92 351.59ZM87.66 287.34L113.9 351.15L127.02 306.84L87.66 287.34Z" fill="#e07a5f"/>
<path d="M116.15 384.5L114.03 351.61L158.62 356.92L125.95 384.5H126.32L158.97 356.94C159.01 356.91 159.02 356.85 159.01 356.8C159 356.75 158.97 356.7 158.92 356.7L113.92 351.34C113.89 351.34 113.86 351.35 113.84 351.38C113.82 351.41 113.81 351.45 113.81 351.49L115.94 384.52H116.15V384.5Z" fill="#e07a5f"/>
<path d="M254.22 265.77C254.2 265.77 254.18 265.76 254.16 265.74C254.12 265.7 254.11 265.63 254.13 265.57L272.66 219.08C272.67 219.05 272.69 219.02 272.72 219.02C272.75 219.01 272.77 219.02 272.8 219.03L283.39 227.97C283.42 227.99 283.43 228.03 283.44 228.07C283.44 228.11 283.43 228.15 283.41 228.18L254.29 265.73C254.27 265.76 254.24 265.77 254.22 265.77ZM272.79 219.34L254.6 264.97L283.18 228.12L272.79 219.34Z" fill="#e07a5f"/>
<path d="M276.72 289.02C276.7 289.02 276.68 289.01 276.66 288.99L254.16 265.75C254.14 265.73 254.12 265.69 254.12 265.65C254.12 265.61 254.13 265.57 254.15 265.55L283.27 228C283.3 227.96 283.35 227.95 283.38 227.98C283.42 228.01 283.44 228.06 283.43 228.12L276.81 288.91C276.8 288.96 276.78 289 276.75 289.01C276.74 289.01 276.73 289.02 276.72 289.02ZM254.37 265.63L276.65 288.64L283.2 228.45L254.37 265.63Z" fill="#e07a5f"/>
<path d="M287.85 227.96H283.37L273.57 219.68L287.85 226.57V226.29L272.78 219.02C272.74 219 272.68 219.03 272.66 219.09C272.64 219.15 272.65 219.23 272.7 219.26L283.29 228.2C283.3 228.21 283.32 228.22 283.34 228.22H287.85V227.96Z" fill="#e07a5f"/>
<path d="M287.85 242L276.99 287.34L283.43 228.23H287.85V227.97H283.34C283.29 227.97 283.25 228.02 283.24 228.08L276.62 288.87C276.61 288.94 276.64 289 276.69 289.02C276.7 289.02 276.7 289.02 276.71 289.02C276.75 289.02 276.79 288.98 276.8 288.93L287.83 242.86V242H287.85Z" fill="#e07a5f"/>
<path d="M287.85 226.3L272.94 219.11L287.85 200.65V200.29L272.69 219.06C272.66 219.09 272.65 219.14 272.66 219.19C272.67 219.23 272.69 219.27 272.72 219.29L287.85 226.59V226.3Z" fill="#e07a5f"/>
<path d="M190.69 296.17C190.67 296.17 190.64 296.16 190.62 296.13L145.62 240.71C145.59 240.68 145.58 240.63 145.59 240.59C145.6 240.54 145.62 240.51 145.65 240.49L186.68 220.82C186.71 220.8 186.74 220.81 186.77 220.83C186.8 220.85 186.81 220.89 186.81 220.93L190.78 295.98C190.78 296 190.79 296.01 190.79 296.03C190.79 296.11 190.75 296.17 190.69 296.17ZM145.87 240.66L190.57 295.71L186.63 221.12L145.87 240.66Z" fill="#e07a5f"/>
<path d="M158.92 356.96C158.88 356.96 158.85 356.93 158.83 356.89L148.24 330.07C148.22 330.01 148.23 329.93 148.28 329.9L190.63 295.93C190.67 295.9 190.72 295.91 190.75 295.95C190.78 296 190.79 296.06 190.76 296.12L158.99 356.91C158.98 356.93 158.95 356.96 158.92 356.96ZM148.46 330.05L158.93 356.57L190.34 296.46L148.46 330.05Z" fill="#e07a5f"/>
<path d="M262.16 371.26H262.15L158.91 356.96C158.88 356.96 158.84 356.92 158.83 356.88C158.82 356.84 158.82 356.79 158.84 356.75L190.61 295.96C190.62 295.93 190.65 295.91 190.67 295.91C190.7 295.91 190.72 295.91 190.74 295.94L262.21 371.03C262.25 371.07 262.26 371.13 262.24 371.18C262.24 371.23 262.2 371.26 262.16 371.26ZM159.1 356.71L261.83 370.94L190.71 296.21L159.1 356.71Z" fill="#e07a5f"/>
<path d="M190.69 296.17C190.67 296.17 190.65 296.16 190.64 296.15C190.62 296.13 190.6 296.09 190.6 296.05L186.63 220.96C186.63 220.91 186.64 220.87 186.67 220.84C186.7 220.81 186.74 220.81 186.77 220.83L254.27 265.53C254.31 265.55 254.33 265.6 254.33 265.66C254.33 265.71 254.3 265.76 254.26 265.78L190.72 296.16C190.71 296.16 190.7 296.17 190.69 296.17ZM186.83 221.16L190.78 295.85L253.97 265.62L186.83 221.16Z" fill="#e07a5f"/>
<path d="M262.16 371.26C262.14 371.26 262.12 371.25 262.1 371.23L190.63 296.14C190.6 296.11 190.59 296.06 190.59 296.01C190.6 295.96 190.62 295.92 190.65 295.91L254.18 265.52C254.21 265.51 254.24 265.51 254.26 265.53C254.28 265.55 254.3 265.59 254.3 265.63L262.24 371.08C262.24 371.1 262.25 371.11 262.25 371.13C262.26 371.2 262.22 371.26 262.16 371.26ZM190.89 296.08L262.04 370.83L254.14 265.82L190.89 296.08Z" fill="#e07a5f"/>
<path d="M162.49 162.47C162.47 162.47 162.46 162.47 162.44 162.45C162.4 162.42 162.38 162.35 162.4 162.29L217.06 99.32C217.07 99.28 217.1 99.25 217.13 99.24C217.16 99.23 217.19 99.24 217.22 99.27L233.1 118.94C233.14 118.99 233.14 119.06 233.11 119.12L162.56 162.43C162.55 162.45 162.52 162.47 162.49 162.47ZM217.2 99.59L162.86 161.49L232.91 119.04L217.2 99.59Z" fill="#e07a5f"/>
<path d="M272.75 219.29C272.75 219.29 272.74 219.29 272.73 219.29L162.47 162.47C162.44 162.46 162.41 162.43 162.4 162.39C162.39 162.35 162.39 162.3 162.41 162.26L232.96 118.96C232.98 118.92 233.01 118.9 233.04 118.91C233.07 118.91 233.1 118.94 233.12 118.98L272.83 219.1C272.85 219.15 272.85 219.2 272.82 219.24C272.81 219.27 272.78 219.29 272.75 219.29ZM162.67 162.25L272.57 218.98L233.03 119.27L162.67 162.25Z" fill="#e07a5f"/>
<path d="M127.16 306.89C127.13 306.89 127.1 306.87 127.08 306.84C127.06 306.8 127.05 306.76 127.07 306.71L145.6 240.56C145.62 240.5 145.65 240.46 145.7 240.48C145.74 240.48 145.78 240.53 145.79 240.59L153.73 303.17C153.73 303.21 153.73 303.24 153.71 303.27C153.69 303.3 153.67 303.32 153.64 303.32L127.17 306.9C127.16 306.89 127.16 306.89 127.16 306.89ZM145.65 241.11L127.3 306.61L153.51 303.07L145.65 241.11Z" fill="#e07a5f"/>
<path d="M149.66 306.89H127.16C127.11 306.89 127.07 306.84 127.06 306.77C127.06 306.7 127.1 306.64 127.15 306.63L153.62 303.05C153.67 303.05 153.71 303.08 153.72 303.14C153.74 303.2 153.72 303.26 153.68 303.29L149.71 306.86C149.69 306.89 149.68 306.89 149.66 306.89ZM129.12 306.63H149.63L153.25 303.37L129.12 306.63Z" fill="#e07a5f"/>
<path d="M153.63 303.32C153.58 303.32 153.54 303.28 153.53 303.21L145.59 240.63C145.58 240.58 145.6 240.52 145.64 240.49C145.68 240.47 145.72 240.47 145.75 240.51L190.75 295.93C190.78 295.97 190.79 296.02 190.78 296.07C190.77 296.12 190.74 296.15 190.7 296.16L153.64 303.31C153.64 303.32 153.63 303.32 153.63 303.32ZM145.83 240.97L153.7 303.04L190.46 295.95L145.83 240.97Z" fill="#e07a5f"/>
<path d="M148.33 330.14C148.32 330.14 148.32 330.14 148.31 330.14C148.26 330.13 148.23 330.07 148.23 330L149.55 306.76C149.55 306.72 149.57 306.68 149.59 306.66L153.56 303.09C153.59 303.06 153.64 303.06 153.67 303.09C153.7 303.12 153.72 303.18 153.71 303.23L148.41 330.05C148.42 330.1 148.38 330.14 148.33 330.14ZM149.75 306.84L148.51 328.59L153.46 303.49L149.75 306.84Z" fill="#e07a5f"/>
<path d="M148.33 330.14C148.31 330.14 148.29 330.13 148.27 330.11C148.24 330.08 148.22 330.02 148.23 329.97L153.52 303.15C153.53 303.1 153.56 303.06 153.6 303.05L190.66 295.9C190.7 295.89 190.75 295.93 190.77 295.99C190.78 296.05 190.77 296.11 190.73 296.15L148.38 330.12C148.37 330.13 148.35 330.14 148.33 330.14ZM153.71 303.31L148.49 329.73L190.22 296.26L153.71 303.31Z" fill="#e07a5f"/>
<path d="M287.85 28L231.5 8.42999L287.85 14.21V13.95L230.4 8.05999C230.35 8.04999 230.31 8.09999 230.3 8.16999C230.29 8.23999 230.32 8.29999 230.37 8.31999L287.85 28.28V28Z" fill="#e07a5f"/>
<path d="M287.85 13.95L231.52 8.17001L287.85 0.620007V0.350006L230.39 8.05001C230.34 8.06001 230.3 8.11001 230.3 8.18001C230.3 8.25001 230.34 8.30001 230.39 8.31001L287.85 14.21V13.95Z" fill="#e07a5f"/>
<path d="M287.85 0.349999L273.76 2.24L287.85 0.27V0L230.39 8.05C230.34 8.06 230.3 8.12 230.3 8.19C230.3 8.26 230.35 8.31 230.4 8.31H230.41L287.85 0.61V0.349999Z" fill="#e07a5f"/>
<path d="M287.85 85.37L217.28 99.21L230.46 8.43L287.85 71.04V70.7L230.46 8.08C230.43 8.05 230.4 8.04 230.36 8.06C230.33 8.08 230.3 8.11 230.3 8.16L217.06 99.34C217.05 99.38 217.06 99.43 217.09 99.46C217.11 99.49 217.13 99.5 217.16 99.5H217.17L287.84 85.64V85.37H287.85Z" fill="#e07a5f"/>
<path d="M287.85 89.28L233.07 118.88L217.38 99.46L287.85 85.64V85.37L217.15 99.23C217.11 99.24 217.08 99.27 217.07 99.32C217.06 99.37 217.07 99.42 217.1 99.46L232.98 119.13C233 119.15 233.02 119.17 233.05 119.17C233.06 119.17 233.07 119.17 233.09 119.16L287.86 89.57V89.28H287.85Z" fill="#e07a5f"/>
<path d="M287.85 70.7L230.81 8.46L287.85 28.27V28L230.42 8.06C230.38 8.04 230.33 8.07 230.31 8.13C230.29 8.19 230.3 8.25 230.34 8.29L287.85 71.04V70.7Z" fill="#e07a5f"/>
<path d="M287.85 141.14L272.72 218.8L233.18 119.1L287.85 89.56V89.28L233.01 118.91C232.99 118.93 232.96 118.95 232.95 118.99C232.94 119.03 232.94 119.06 232.96 119.1L272.67 219.22C272.69 219.26 272.72 219.29 272.75 219.29H272.76C272.8 219.29 272.83 219.25 272.84 219.19L287.84 142.18V141.14H287.85Z" fill="#e07a5f"/>
<path d="M287.85 200.28L272.93 218.75L287.85 142.17V141.13L272.66 219.11C272.65 219.17 272.67 219.22 272.71 219.26C272.72 219.27 272.74 219.28 272.76 219.28C272.79 219.28 272.81 219.27 272.83 219.25L287.86 200.64V200.28H287.85Z" fill="#e07a5f"/>
<path d="M12.25 384.5L12.12 364.62L13.85 384.5H14.05L12.11 362.17C12.11 362.1 12.07 362.05 12.01 362.05C11.96 362.06 11.92 362.11 11.92 362.18L12.06 384.49H12.25V384.5Z" fill="#e07a5f"/>
<path d="M0 337.17L2.74 384.5H2.93L0.22 337.67" fill="#e07a5f"/>
<path d="M0.220054 337.67L11.9101 362.23L12.0501 384.5H12.2501L12.1101 362.19C12.1101 362.17 12.1001 362.14 12.0901 362.12L0.180054 337.09" fill="#e07a5f"/>
<path d="M287.85 377.19L262.28 371.02L276.74 289.36L287.85 334.39V333.56L276.82 288.85C276.81 288.79 276.76 288.76 276.72 288.76C276.68 288.76 276.64 288.8 276.63 288.86L262.07 371.1C262.06 371.14 262.07 371.17 262.08 371.2C262.09 371.23 262.12 371.25 262.14 371.26L287.84 377.46V377.19H287.85Z" fill="#e07a5f"/>
<path d="M287.85 333.56L276.91 289.24L287.85 300.12V299.79L276.78 288.77C276.75 288.74 276.7 288.74 276.66 288.77C276.63 288.81 276.61 288.86 276.62 288.92L287.84 334.39V333.56H287.85Z" fill="#e07a5f"/>
<path d="M256.62 384.5L262.19 371.34L272.6 384.5H272.89L262.23 371.03C262.21 371 262.18 370.99 262.15 370.99C262.12 371 262.09 371.02 262.08 371.06L256.4 384.5H256.62Z" fill="#e07a5f"/>
<path d="M272.6 384.5H272.89L262.47 371.34L287.85 377.46V377.19L262.18 371C262.14 370.99 262.09 371.02 262.08 371.07C262.06 371.12 262.07 371.18 262.1 371.22L272.6 384.5Z" fill="#e07a5f"/>
</svg>
